<?xml version="1.0" encoding="utf-8"?>
<svg viewBox="0 0 500 500" xmlns="http://www.w3.org/2000/svg">
  <defs/>
  <path fill="rgb(255,0,0)" stroke="rgb(255,0,0)" stroke-width="0" d="M -28.73 69.121 C -25.594 69.111 -16.201 72.514 -9.754 75.664 C -2.598 79.16 9.632 87.817 12.167 89.733 C 12.951 90.325 12.471 90.18 13.148 90.714 C 14.884 92.083 23.518 97.525 25.253 98.893 C 25.93 99.427 25.697 99.375 26.235 99.875 C 27.285 100.852 30.746 103.806 31.797 104.782 C 32.334 105.282 32.194 105.284 32.778 105.764 C 33.98 106.752 38.237 109.31 39.649 110.671 C 40.559 111.549 40.69 112.404 41.285 112.962 C 41.794 113.439 42.484 113.507 42.92 113.943 C 43.357 114.379 43.304 114.953 43.902 115.579 C 44.853 116.575 47.846 118.37 48.81 119.178 C 49.343 119.625 49.293 119.591 49.791 120.159 C 50.814 121.325 53.207 125.017 55.026 126.703 C 56.606 128.167 58.822 128.861 59.933 129.974 C 60.791 130.833 60.96 131.98 61.569 132.592 C 62.071 133.096 62.696 133.096 63.205 133.573 C 63.8 134.131 64.359 135.288 64.841 135.863 C 65.204 136.297 65.563 136.389 65.822 136.845 C 66.145 137.41 66.026 138.588 66.477 139.135 C 66.913 139.665 67.928 139.754 68.44 140.117 C 68.866 140.419 69.025 140.618 69.421 141.098 C 70.025 141.832 70.784 143.443 71.711 144.37 C 72.638 145.297 74.25 146.056 74.983 146.66 C 75.464 147.056 75.473 147.229 75.965 147.642 C 76.747 148.298 78.669 149.313 79.563 150.259 C 80.336 151.076 80.709 152.248 81.199 152.876 C 81.555 153.332 81.341 153.178 82.181 153.858 C 85.389 156.455 110.373 174.181 114.243 177.087 C 115.438 177.984 114.842 177.707 115.879 178.395 C 118.341 180.029 124.719 184.378 131.583 187.556 C 140.969 191.903 158.725 198.503 168.881 201.297 C 176.481 203.388 180.731 203.896 187.856 204.569 C 196.151 205.353 204.337 206.682 215.993 205.223 C 232.131 203.203 255.269 194.24 277.501 189.519 C 302.009 184.315 337.316 178.583 357.33 175.778 C 371.173 173.838 376.502 173.121 389.393 172.506 C 406.014 171.714 428.16 170.178 450.246 172.506 C 475.393 175.158 508.958 185.941 532.693 189.519 C 552.103 192.446 577.951 190.291 583.404 194.1 C 585.76 195.746 584.582 198.74 584.058 200.316 C 583.613 201.656 582.784 202.659 581.114 203.26 C 578.473 204.211 573.924 203.541 568.027 203.26 C 558.985 202.83 545.828 202.36 530.075 199.989 C 508.443 196.733 472.08 185.577 447.629 182.976 C 426.913 180.772 413.367 181.37 392.01 182.976 C 365.903 184.939 328.788 190.56 301.057 196.063 C 276.052 201.024 249.994 210.751 232.351 213.73 C 219.929 215.827 213.426 215.916 202.906 215.693 C 191.328 215.447 177.586 214.427 165.609 211.767 C 153.826 209.149 143.185 205.441 131.583 199.989 C 118.811 193.986 104.717 185.549 92.323 176.432 C 79.72 167.162 61.391 149.896 56.662 144.697 C 54.861 142.718 55.329 142.174 54.371 141.098 C 53.38 139.984 51.781 139.182 50.773 138.154 C 49.849 137.212 49.45 136.209 48.482 135.209 C 47.346 134.035 45.441 132.942 44.229 131.61 C 43.053 130.317 43.201 129.392 41.285 127.357 C 37.358 123.187 27.76 114.333 17.728 107.073 C 4.852 97.753 -27.262 83.178 -31.674 76.646 C -33.484 73.967 -31.741 71.649 -31.02 70.43 C -30.509 69.566 -30.122 69.125 -28.73 69.121 Z" style="fill: rgb(166, 209, 48); stroke: rgb(129, 151, 57); stroke-width: 2px;"/>
</svg>