<?xml version="1.0" encoding="utf-8"?>
<svg viewBox="0 0 500 500" xmlns="http://www.w3.org/2000/svg">
  <defs/>
  <path fill="rgb(255,0,0)" stroke="rgb(255,0,0)" stroke-width="0" d="M 354.713 -60.3 C 355.961 -60.288 359.815 -59.373 360.929 -58.01 C 361.946 -56.765 362.082 -55.841 361.583 -52.775 C 360.37 -45.319 350.753 -19.7 345.225 -6.971 C 340.695 3.458 337.133 10.166 331.484 19.202 C 325.181 29.284 316.838 40.72 308.582 50.61 C 300.365 60.454 285.517 75.44 282.081 78.42 C 281.047 79.316 281.252 78.712 280.445 79.401 C 278.71 80.885 273.998 86.591 271.612 88.889 C 269.91 90.529 268.588 91.242 267.359 92.488 C 266.214 93.647 266.886 93.767 264.414 96.087 C 256.011 103.973 204.179 142.554 187.529 158.576 C 176.868 168.836 172.634 174.721 166.59 183.441 C 160.679 191.971 155.221 201.923 151.541 210.269 C 148.363 217.476 146.428 222.875 144.997 230.554 C 143.353 239.376 142.855 252.35 143.034 260.653 C 143.175 267.172 143.625 270.724 144.997 277.012 C 146.712 284.869 149.761 295.503 153.504 304.494 C 157.346 313.725 165.688 328.703 167.899 331.649 C 168.583 332.56 168.774 332.064 169.208 332.63 C 169.868 333.493 170.51 336.021 171.171 336.884 C 171.604 337.45 171.996 337.379 172.479 337.865 C 173.152 338.54 174.172 340.124 174.77 340.81 C 175.172 341.271 175.485 341.384 175.751 341.791 C 176.044 342.239 175.975 342.93 176.406 343.427 C 176.945 344.048 178.354 344.421 179.023 345.063 C 179.623 345.639 179.775 346.533 180.332 347.026 C 180.872 347.505 181.723 347.478 182.295 348.007 C 182.949 348.614 183.44 349.997 183.93 350.625 C 184.287 351.081 184.456 351.25 184.912 351.606 C 185.54 352.096 186.911 352.687 187.529 353.242 C 188.009 353.672 188.073 353.987 188.511 354.551 C 189.148 355.371 189.806 356.548 191.128 357.822 C 193.086 359.71 198.545 363.196 199.962 364.693 C 200.66 365.431 200.19 365.652 200.943 366.329 C 202.501 367.729 209.518 370.707 211.085 372.218 C 211.887 372.991 210.465 372.855 212.067 374.181 C 221.596 382.065 365.403 462.311 375.979 469.06 C 377.724 470.174 376.517 469.606 377.615 470.369 C 380.546 472.405 395.766 481.39 398.226 483.455 C 399.061 484.156 398.641 484.33 399.208 484.764 C 400.07 485.424 402.604 485.939 403.461 486.727 C 404.094 487.309 403.258 487.548 404.442 488.69 C 408.879 492.969 449.572 518.442 453.845 522.061 C 454.859 522.92 454.255 522.853 454.827 523.37 C 455.781 524.234 458.78 525.778 459.734 526.642 C 460.305 527.159 460.036 527.297 460.716 527.95 C 462.265 529.44 469.219 533.007 470.858 535.802 C 472.137 537.984 472.54 541.046 471.512 542.673 C 470.417 544.406 467.464 546.496 463.987 545.617 C 457.521 543.983 446.968 530.532 434.542 521.407 C 418.289 509.471 395.303 494.667 372.38 480.184 C 346.594 463.892 313.754 443.942 286.662 428.491 C 261.866 414.35 234.755 402.637 215.993 390.539 C 201.075 380.92 183.751 365.629 180.332 362.73 C 179.483 362.01 179.915 362.28 179.35 361.748 C 178.144 360.612 175.204 358.441 172.479 355.532 C 168.574 351.363 162.662 344.943 158.084 337.865 C 152.771 329.651 147.005 318.243 143.034 308.42 C 139.247 299.048 136.31 290.931 134.528 280.283 C 132.474 268.01 131.758 249.85 132.565 238.406 C 133.197 229.449 134.755 223.631 137.145 216.158 C 139.671 208.261 145.839 195.913 147.615 192.275 C 148.325 190.82 148.584 190.682 148.923 189.985 C 149.212 189.391 149.177 188.777 149.578 188.349 C 150.015 187.882 151.026 188.013 151.541 187.367 C 152.223 186.51 152.167 183.971 152.849 183.114 C 153.364 182.468 154.118 182.877 154.812 182.132 C 156.004 180.854 157.737 175.88 158.738 174.608 C 159.257 173.949 159.656 174.135 160.047 173.626 C 160.56 172.958 160.692 171.448 161.356 170.682 C 162.008 169.928 163.012 169.986 163.973 169.046 C 165.411 167.639 167.892 163.377 168.881 162.175 C 169.361 161.591 169.499 161.628 169.862 161.194 C 170.344 160.618 170.903 159.461 171.498 158.903 C 172.007 158.426 172.698 158.358 173.134 157.922 C 173.57 157.486 173.679 156.722 174.115 156.286 C 174.552 155.85 175.371 155.809 175.751 155.305 C 176.167 154.753 175.918 153.649 176.406 153.014 C 176.946 152.311 178.395 151.869 179.023 151.379 C 179.479 151.022 179.648 150.853 180.004 150.397 C 180.495 149.769 180.626 148.832 181.64 147.78 C 183.354 146.002 189.351 142.13 190.801 140.909 C 191.425 140.384 191.321 140.33 191.782 139.928 C 192.468 139.33 194.042 138.235 194.727 137.637 C 195.188 137.235 195.114 137.154 195.708 136.656 C 196.985 135.588 201.957 132.162 203.233 131.094 C 203.828 130.596 203.71 130.478 204.215 130.113 C 204.993 129.549 207.044 128.789 207.814 128.15 C 208.347 127.706 208.049 127.523 208.795 126.841 C 210.714 125.087 220.953 118.26 222.864 116.699 C 223.559 116.13 223.169 116.308 223.845 115.717 C 225.697 114.098 235.407 106.539 237.259 104.921 C 237.935 104.329 237.779 104.341 238.24 103.939 C 238.926 103.342 240.5 102.246 241.185 101.649 C 241.646 101.246 241.645 101.148 242.167 100.667 C 243.134 99.777 246.107 97.305 247.074 96.414 C 247.596 95.934 247.518 95.932 248.056 95.433 C 249.106 94.456 252.567 91.502 253.617 90.525 C 254.155 90.025 254.114 89.977 254.599 89.544 C 255.385 88.841 257.429 87.461 258.198 86.599 C 258.736 85.995 258.829 85.416 259.179 84.963 C 259.488 84.564 259.603 84.506 260.161 83.982 C 261.329 82.884 265.536 79.191 266.704 78.093 C 267.262 77.568 267.33 77.567 267.686 77.111 C 268.176 76.483 268.613 75.203 269.322 74.494 C 270.03 73.785 271.223 73.529 271.939 72.858 C 272.629 72.211 272.741 71.471 273.575 70.568 C 274.803 69.236 277.156 67.721 279.137 65.66 C 281.563 63.136 284.692 58.448 286.989 56.172 C 288.691 54.486 290.647 53.377 291.569 52.573 C 292.088 52.121 292.049 52.224 292.551 51.592 C 293.702 50.142 296.664 44.757 298.767 42.431 C 300.491 40.524 302.708 39.608 304.001 38.178 C 305.078 36.987 305.681 35.359 306.292 34.579 C 306.681 34.081 306.605 34.508 307.273 33.598 C 310.061 29.798 325.875 6.867 333.447 -8.28 C 341.358 -24.106 350.633 -55.642 353.404 -59.646 C 354.053 -60.583 354.03 -60.306 354.713 -60.3 Z" style="fill: rgb(166, 209, 48); stroke: rgb(129, 151, 57); stroke-width: 2px;"/>
</svg>