<?xml version="1.0" encoding="utf-8"?>
<svg viewBox="0 0 500 500" xmlns="http://www.w3.org/2000/svg">
  <defs/>
  <path fill="rgb(255,0,0)" stroke="rgb(255,0,0)" stroke-width="0" d="M 45.865 122.122 C 64.649 121.369 90.372 121.086 110.644 122.777 C 129.448 124.345 148.88 127.925 163.646 131.283 C 175.571 133.995 182.725 136.166 193.745 140.444 C 206.763 145.497 220.249 153.794 236.932 160.728 C 256.806 168.989 287.449 180.282 306.292 186.248 C 320.502 190.746 330.866 193.451 341.626 195.408 C 351.017 197.116 365.167 200.288 367.472 198.026 C 369.025 196.502 364.247 192.618 363.546 189.192 C 362.74 185.249 361.906 180.619 363.546 175.451 C 365.739 168.541 372.125 156.974 378.923 151.568 C 385.451 146.377 394.414 144.623 403.134 143.061 C 412.429 141.396 425.325 140.719 433.233 142.407 C 439.456 143.735 444.868 146.497 447.956 149.932 C 450.654 152.933 451.214 157.114 451.882 161.056 C 452.578 165.164 452.601 170.113 451.882 174.142 C 451.207 177.926 450.026 181.308 447.956 184.612 C 445.699 188.214 442.492 191.786 438.468 194.754 C 433.905 198.12 428.192 200.923 421.455 203.26 C 413.466 206.033 394.224 208.049 392.992 209.477 C 392.541 209.999 394.438 210.367 394.955 210.785 C 395.372 211.124 395.14 211.196 395.936 211.767 C 398.497 213.604 410.645 221.22 418.184 224.853 C 425.484 228.372 432.828 230.966 440.431 233.36 C 448.093 235.772 454.895 237.931 463.987 239.249 C 474.863 240.826 486.636 242.616 501.939 241.212 C 522.169 239.356 558.932 227.813 576.533 224.853 C 587.795 222.96 597.668 221.726 601.398 222.236 C 602.916 222.444 603.178 222.681 603.688 223.545 C 604.41 224.764 604.867 228.185 604.343 229.761 C 603.897 231.101 604.066 231.559 601.398 232.706 C 592.492 236.534 540.411 246.798 518.297 249.718 C 501.933 251.879 489.268 252.03 478.383 251.681 C 469.951 251.411 465.598 250.767 457.444 249.064 C 447.115 246.907 432.076 243.02 420.801 238.595 C 410.148 234.413 399.107 228.975 391.356 223.545 C 384.913 219.032 383.487 212.214 376.306 209.149 C 367.163 205.248 350.738 207.97 338.354 205.878 C 326.096 203.806 319.708 202.426 302.366 196.717 C 272.038 186.734 197.393 152.401 162.337 142.407 C 138.759 135.685 126.066 134.893 107.373 133.246 C 88.346 131.57 68.54 132.047 49.137 132.592 C 29.716 133.137 2.245 136.629 -9.099 136.518 C -14.961 136.461 -17.86 136.256 -20.223 135.209 C -21.814 134.504 -22.722 133.604 -23.168 132.265 C -23.692 130.688 -23.977 127.367 -22.513 126.048 C -20.602 124.327 -14.714 124.776 -10.408 124.74 C -5.714 124.7 -2.042 126.137 4.642 126.048 C 14.647 125.916 30.16 122.752 45.865 122.122 Z M 413.276 152.876 C 405.643 154.035 393.057 155.74 386.448 160.728 C 380.252 165.405 374.812 175.307 374.016 181.013 C 373.414 185.323 376.947 190.043 377.942 192.137 C 378.464 193.236 378.676 193.27 379.25 194.1 C 380.064 195.275 379.933 197.963 382.522 198.68 C 388.071 200.218 410.507 195.559 419.819 192.137 C 426.815 189.565 433.689 184.075 435.524 182.321 C 436.188 181.686 435.874 181.43 436.178 181.013 C 436.511 180.554 436.979 180.537 437.487 179.704 C 438.506 178.032 441.144 173.381 441.413 169.889 C 441.696 166.208 440.942 160.958 438.795 158.111 C 436.717 155.355 432.852 153.809 428.98 152.876 C 424.536 151.806 419.337 151.956 413.276 152.876 Z" style="fill: rgb(166, 209, 48); stroke: rgb(129, 151, 57); stroke-width: 2px;"/>
</svg>