<?xml version="1.0" encoding="utf-8"?>
<svg viewBox="0 0 500 500" xmlns="http://www.w3.org/2000/svg">
  <defs/>
  <path fill="rgb(255,0,0)" stroke="rgb(255,0,0)" stroke-width="0" d="M 267.031 324.313 C 271.464 323.097 276.64 323.58 281.427 324.313 C 286.347 325.066 294.158 327.691 296.149 328.893 C 296.961 329.383 296.549 329.638 297.131 330.202 C 298.171 331.211 300.854 332.564 302.693 334.455 C 304.895 336.72 307.905 341.874 309.236 343.289 C 309.858 343.949 310.107 343.815 310.545 344.27 C 311.088 344.836 311.699 345.985 312.181 346.56 C 312.544 346.994 312.647 346.756 313.162 347.542 C 314.718 349.912 321.253 360.409 322.977 367.172 C 324.649 373.727 324.295 381.317 323.632 387.457 C 323.035 392.976 316.912 398.41 319.706 402.506 C 323.814 408.53 343.777 412.181 358.639 414.612 C 375.935 417.44 396.45 418.1 418.184 416.575 C 442.992 414.834 479.778 408.677 499.976 402.834 C 514.352 398.675 529.058 390.678 532.366 388.438 C 533.332 387.783 532.698 387.681 533.347 387.129 C 534.619 386.047 539.6 383.631 540.872 382.549 C 541.521 381.997 541.161 381.897 541.854 381.24 C 543.468 379.711 551.03 374.736 552.65 373.061 C 553.39 372.297 553.054 372.016 553.632 371.425 C 554.493 370.545 556.872 369.458 557.885 368.481 C 558.679 367.715 558.894 366.801 559.521 366.191 C 560.104 365.622 560.462 365.391 561.484 364.882 C 563.237 364.007 568.148 361.493 569.99 361.61 C 571.141 361.684 571.703 362.353 572.28 363.246 C 573.029 364.405 574.031 366.789 573.589 368.481 C 573.086 370.403 571.565 371.39 568.681 374.043 C 563.021 379.251 548.301 392.301 537.273 398.908 C 526.666 405.262 517.586 409.252 503.902 413.303 C 486.614 418.421 460.533 422.814 439.777 425.081 C 420.022 427.238 397.67 427.253 382.195 427.044 C 370.459 426.886 363.664 427.061 353.404 425.081 C 341.817 422.845 324.568 409.36 316.107 413.303 C 307.897 417.128 308.017 438.346 302.693 447.001 C 298.352 454.058 295.291 457.171 287.97 463.033 C 277.347 471.539 257.551 483.108 240.858 491.824 C 223.594 500.837 202.39 509.962 185.893 516.034 C 171.936 521.172 159.305 524.899 147.942 527.158 C 138.289 529.076 126.089 531.917 121.768 529.775 C 119.074 528.439 118.91 523.783 118.824 522.25 C 118.777 521.417 118.408 521.244 119.478 520.614 C 123.62 518.176 153.818 514.541 170.189 509.491 C 186.417 504.484 202.434 497.233 217.302 490.515 C 231.475 484.11 253.756 472.947 257.543 470.23 C 258.549 469.509 257.856 469.465 258.525 468.922 C 259.87 467.829 265.359 465.434 266.704 464.341 C 267.373 463.798 267.221 463.435 267.686 463.033 C 268.248 462.546 269.414 462.211 269.976 461.724 C 270.44 461.322 270.391 460.849 270.957 460.415 C 271.82 459.755 274.348 459.113 275.211 458.452 C 275.777 458.019 275.621 457.661 276.192 457.144 C 277.147 456.279 280.145 454.736 281.1 453.872 C 281.671 453.355 281.587 453.018 282.081 452.563 C 282.754 451.944 284.433 451.422 285.026 450.6 C 285.557 449.863 285.166 448.682 285.68 447.983 C 286.223 447.245 287.629 446.989 288.297 446.347 C 288.898 445.771 289.194 445.138 289.606 444.384 C 290.073 443.53 290.401 442.108 290.915 441.44 C 291.306 440.93 291.592 441.425 292.223 440.458 C 294.357 437.189 308.024 416.239 305.31 408.723 C 302.754 401.643 286.955 400.781 278.809 395.636 C 270.844 390.604 262.132 383.81 256.889 378.296 C 252.795 373.99 249.894 370.93 248.383 365.863 C 246.659 360.084 247.348 350.434 248.383 344.925 C 249.182 340.666 251.684 336.331 252.636 334.782 C 253.052 334.105 253.286 334.243 253.617 333.801 C 254.046 333.229 253.939 332.431 254.926 331.511 C 256.856 329.712 262.637 325.518 267.031 324.313 Z M 272.593 334.782 C 270.005 335.026 268.633 335.646 266.704 337.4 C 264.021 339.839 260.088 345.687 258.852 349.832 C 257.747 353.539 257.922 357.63 258.852 360.956 C 259.743 364.142 262.575 367.732 264.087 369.462 C 265.055 370.569 265.989 370.976 266.704 371.425 C 267.223 371.751 267.573 371.649 268.013 372.08 C 268.659 372.712 268.166 373.813 269.976 375.351 C 274.861 379.504 303.64 399.39 309.891 397.599 C 313.936 396.439 313.112 387.758 313.162 382.549 C 313.215 377.089 312.383 371.518 309.891 365.536 C 306.897 358.35 299.248 347.267 294.841 342.634 C 291.964 339.61 290.249 338.682 286.989 337.4 C 283.103 335.871 276.186 334.444 272.593 334.782 Z" style="fill: rgb(166, 209, 48); stroke: rgb(129, 151, 57); stroke-width: 2px;"/>
</svg>