<?xml version="1.0" encoding="utf-8"?>
<svg viewBox="48.594 170.077 418.797 119.565" xmlns="http://www.w3.org/2000/svg">
  <defs/>
  <g id="OBJECTS" transform="matrix(2.068235, 0, 0, 2.070444, -6.375881, -713.831604)" style="">
    <g>
      <g>
        <g/>
        <g/>
        <g/>
        <g/>
        <g/>
        <g/>
      </g>
      <g>
        <g/>
        <g/>
        <g/>
        <g/>
        <g/>
        <g/>
      </g>
    </g>
    <g>
      <g>
        <g/>
        <g/>
        <g/>
        <g/>
        <g/>
        <g/>
        <g/>
        <g/>
        <g/>
        <g/>
      </g>
      <g>
        <g/>
        <g/>
        <g/>
        <g/>
        <g/>
        <g/>
        <g/>
        <g/>
        <g/>
        <g/>
      </g>
    </g>
    <g>
      <g>
        <g/>
        <g/>
        <g/>
        <g/>
        <g/>
        <g/>
        <g/>
        <g/>
        <g/>
        <g/>
        <g/>
        <g/>
        <g/>
        <g/>
      </g>
      <g>
        <g/>
        <g/>
        <g/>
        <g/>
        <g/>
        <g/>
        <g/>
        <g/>
        <g/>
        <g/>
        <g/>
        <g/>
        <g/>
        <g/>
      </g>
    </g>
    <g>
      <g>
        <g/>
        <g/>
        <g/>
        <g/>
        <g/>
        <g/>
        <g/>
        <g/>
        <g/>
        <g/>
        <g/>
        <g/>
        <g/>
      </g>
      <g>
        <g/>
        <g/>
        <g/>
        <g/>
        <g/>
        <g/>
        <g/>
        <g/>
        <g/>
        <g/>
        <g/>
        <g/>
        <g/>
      </g>
    </g>
    <g>
      <g>
        <g/>
        <g/>
        <g/>
        <g/>
        <g/>
        <g/>
        <g/>
        <g/>
      </g>
      <g>
        <g/>
        <g/>
        <g/>
        <g/>
        <g/>
        <g/>
        <g/>
        <g/>
      </g>
    </g>
    <g>
      <g>
        <g/>
        <g/>
        <g/>
        <g/>
        <g/>
        <g/>
        <g/>
        <g/>
      </g>
      <g>
        <g/>
        <g/>
        <g/>
        <g/>
        <g/>
        <g/>
        <g/>
        <g/>
      </g>
    </g>
    <g>
      <g>
        <g>
          <g>
            <path d="M135.35,465.193c5.358-6.126,12.349-10.032,19.545-13.616c7.974-3.971,17.423-8.168,26.204-4.071&#10;&#9;&#9;&#9;&#9;&#9;&#9;c2.062,0.962,4.379,2.391,5.471,4.48c1.018,3.767,0.042,6.379-2.928,7.838c-1.896,1.861-3.136,1.548-3.723-0.939&#10;&#9;&#9;&#9;&#9;&#9;&#9;c0.201-1.262,4.907-3.173,6.006-3.681c2.06-0.953,4.176-1.732,6.372-2.297c8.614-2.215,27.504,0.65,23.303,13.857&#10;&#9;&#9;&#9;&#9;&#9;&#9;c-0.363,1.142,1.43,1.631,1.792,0.494c4.497-14.136-14.817-18.653-24.835-16.338c-4.074,0.941-14.767,3.957-15.491,9.142&#10;&#9;&#9;&#9;&#9;&#9;&#9;c-0.609,4.362,4.672,2.845,6.858,1.7c4.579-2.4,6.985-7.152,3.601-11.61c-3.357-4.423-9.256-6.25-14.617-6.181&#10;&#9;&#9;&#9;&#9;&#9;&#9;c-7.245,0.093-13.987,3.477-20.309,6.684c-6.87,3.486-13.446,7.372-18.565,13.225&#10;&#9;&#9;&#9;&#9;&#9;&#9;C133.251,464.776,134.561,466.095,135.35,465.193L135.35,465.193z"/>
          </g>
          <g>
            <path d="M150.688,454.186c1.252-0.038,2.486-0.428,3.738-0.387c0.592,0.02,1.192,0.108,1.756,0.294&#10;&#9;&#9;&#9;&#9;&#9;&#9;c0.264,0.087,2.031,0.838,1.934,1.247c0.216-0.216,0.433-0.433,0.649-0.649c-1.165,0.473-2.718,0.032-3.895-0.219&#10;&#9;&#9;&#9;&#9;&#9;&#9;c-0.692-0.148-3.114-0.574-3.426-1.316c-0.456-1.086-2.256-0.609-1.792,0.494c0.706,1.681,3.096,2.264,4.724,2.615&#10;&#9;&#9;&#9;&#9;&#9;&#9;c1.331,0.287,4.63,1.21,5.486-0.319c0.853-1.524-1.519-2.966-2.602-3.423c-2.249-0.949-4.262-0.264-6.572-0.195&#10;&#9;&#9;&#9;&#9;&#9;&#9;C149.494,452.363,149.489,454.222,150.688,454.186L150.688,454.186z"/>
          </g>
          <g>
            <path d="M161.436,447.534c0.314-1.382,0.692-2.758,1.31-4.039c0.444-0.921,1.363-2.876,2.415-3.213&#10;&#9;&#9;&#9;&#9;&#9;&#9;c0.303-0.367,0.407-0.285,0.312,0.244c-0.139,0.37-0.304,0.728-0.493,1.074c-0.338,0.628-0.746,1.214-1.218,1.748&#10;&#9;&#9;&#9;&#9;&#9;&#9;c-0.905,1.025-1.999,1.783-3.226,2.369c-1.079,0.516-0.137,2.119,0.938,1.605c2.01-0.961,3.721-2.456,4.874-4.372&#10;&#9;&#9;&#9;&#9;&#9;&#9;c0.726-1.207,1.93-3.526,0.338-4.582c-1.605-1.064-3.393,0.961-4.259,2.096c-1.468,1.923-2.253,4.242-2.783,6.576&#10;&#9;&#9;&#9;&#9;&#9;&#9;C159.38,448.205,161.171,448.702,161.436,447.534L161.436,447.534z"/>
          </g>
          <g>
            <path d="M199.398,451.798c0.878,0.745,1.901,0.902,2.905,1.414c1.243,0.634,2.271,1.717,2.839,2.993&#10;&#9;&#9;&#9;&#9;&#9;&#9;c0.156,0.356,0.277,0.724,0.363,1.102c-0.034,1.187-0.324,1.426-0.871,0.715c-0.527-0.292-1.065-1.11-1.442-1.574&#10;&#9;&#9;&#9;&#9;&#9;&#9;c-1.028-1.265-1.801-2.654-2.249-4.224c-0.327-1.148-2.121-0.66-1.792,0.494c0.567,1.989,5.118,10.652,7.853,6.672&#10;&#9;&#9;&#9;&#9;&#9;&#9;c1.081-1.573-0.001-3.972-0.972-5.329c-0.547-0.764-1.222-1.432-1.994-1.967c-1.003-0.696-2.419-0.84-3.327-1.61&#10;&#9;&#9;&#9;&#9;&#9;&#9;C199.806,449.714,198.485,451.022,199.398,451.798L199.398,451.798z"/>
          </g>
          <g>
            <path d="M200.583,450.747c0.621-1.928,3.761-3.565,5.556-4.245c0.583-0.221,1.131-0.339,0.732,0.535&#10;&#9;&#9;&#9;&#9;&#9;&#9;c-0.196,0.43-0.982,0.876-1.369,1.101c-1.161,0.673-2.549,0.89-3.862,1.029c-1.177,0.124-1.19,1.984,0,1.858&#10;&#9;&#9;&#9;&#9;&#9;&#9;c2.229-0.236,4.524-0.707,6.2-2.313c1.038-0.995,2.091-2.985,0.501-4.03c-1.5-0.985-3.741,0.385-5.037,1.157&#10;&#9;&#9;&#9;&#9;&#9;&#9;c-1.773,1.056-3.852,2.361-4.514,4.415C198.424,451.394,200.217,451.883,200.583,450.747L200.583,450.747z"/>
          </g>
          <g>
            <path d="M217.528,462.487c1.326,0.489,2.787,1.367,3.022,2.895c0.035,0.157,0.046,0.316,0.031,0.478&#10;&#9;&#9;&#9;&#9;&#9;&#9;c0.584-0.322,0.644-0.551,0.18-0.687c-0.149-0.242-0.518-0.462-0.715-0.67c-0.54-0.572-0.972-1.209-1.353-1.896&#10;&#9;&#9;&#9;&#9;&#9;&#9;c-0.58-1.046-2.186-0.11-1.605,0.938c0.656,1.184,1.567,2.497,2.734,3.232c0.834,0.526,2.215,0.685,2.561-0.5&#10;&#9;&#9;&#9;&#9;&#9;&#9;c0.325-1.112-0.3-2.484-0.964-3.339c-0.865-1.113-2.1-1.765-3.399-2.244C216.898,460.281,216.413,462.077,217.528,462.487&#10;&#9;&#9;&#9;&#9;&#9;&#9;L217.528,462.487z"/>
          </g>
          <g>
            <path d="M215.821,466.43c-1.257,0.418-8.674,3.984-5.798,5.875c1.222,0.803,3.252,0.093,4.361-0.613&#10;&#9;&#9;&#9;&#9;&#9;&#9;c1.522-0.967,2.518-2.501,3.253-4.11c0.493-1.08-1.108-2.026-1.605-0.938c-0.468,1.025-1.005,2.046-1.829,2.833&#10;&#9;&#9;&#9;&#9;&#9;&#9;c-0.47,0.449-1.01,0.825-1.626,1.049c-0.266,0.097-1.279,0.439-1.533,0.225c0.091,0.219,0.181,0.438,0.272,0.657&#10;&#9;&#9;&#9;&#9;&#9;&#9;c0.006-0.589,1.823-1.64,2.283-1.926c0.855-0.532,1.759-0.943,2.714-1.261C217.444,467.847,216.96,466.051,215.821,466.43&#10;&#9;&#9;&#9;&#9;&#9;&#9;L215.821,466.43z"/>
          </g>
        </g>
        <g>
          <g>
            <path d="M122.752,463.879c-5.119-5.854-11.695-9.74-18.565-13.225c-6.119-3.104-12.636-6.39-19.628-6.675&#10;&#9;&#9;&#9;&#9;&#9;&#9;c-5.565-0.227-11.801,1.567-15.297,6.172c-3.384,4.458-0.978,9.211,3.601,11.61c2.186,1.145,7.467,2.662,6.858-1.7&#10;&#9;&#9;&#9;&#9;&#9;&#9;c-0.701-5.02-10.788-7.931-14.737-8.947c-10.063-2.588-30.21,1.617-25.589,16.144c0.361,1.135,2.156,0.65,1.792-0.494&#10;&#9;&#9;&#9;&#9;&#9;&#9;c-4.076-12.814,13.962-16.016,22.549-14.052c2.456,0.562,4.843,1.435,7.127,2.492c1.099,0.508,5.804,2.419,6.006,3.681&#10;&#9;&#9;&#9;&#9;&#9;&#9;c-0.586,2.487-1.827,2.8-3.723,0.939c-2.97-1.458-3.946-4.071-2.928-7.838c1.092-2.089,3.409-3.518,5.471-4.48&#10;&#9;&#9;&#9;&#9;&#9;&#9;c8.515-3.973,17.706-0.125,25.489,3.717c7.441,3.673,14.726,7.641,20.261,13.97&#10;&#9;&#9;&#9;&#9;&#9;&#9;C122.226,466.095,123.536,464.776,122.752,463.879L122.752,463.879z"/>
          </g>
          <g>
            <path d="M106.1,452.328c-2.265-0.068-4.244-0.733-6.461,0.148c-1.111,0.442-3.584,1.914-2.713,3.47&#10;&#9;&#9;&#9;&#9;&#9;&#9;c0.829,1.482,3.92,0.628,5.205,0.374c1.695-0.335,4.266-0.912,5.005-2.669c0.463-1.101-1.335-1.582-1.792-0.494&#10;&#9;&#9;&#9;&#9;&#9;&#9;c-0.118,0.282-1.641,0.82-1.776,0.867c-0.537,0.189-1.094,0.329-1.65,0.449c-1.139,0.246-2.757,0.682-3.896,0.219&#10;&#9;&#9;&#9;&#9;&#9;&#9;c0.216,0.216,0.433,0.433,0.649,0.649c-0.098-0.411,1.67-1.158,1.934-1.247c0.564-0.19,1.162-0.284,1.756-0.294&#10;&#9;&#9;&#9;&#9;&#9;&#9;c1.257-0.023,2.482,0.349,3.738,0.387C107.296,454.222,107.295,452.363,106.1,452.328L106.1,452.328z"/>
          </g>
          <g>
            <path d="M97.143,447.04c-0.53-2.335-1.315-4.653-2.783-6.576c-0.859-1.125-2.65-3.163-4.259-2.096&#10;&#9;&#9;&#9;&#9;&#9;&#9;c-1.588,1.052-0.393,3.374,0.338,4.582c1.158,1.916,2.862,3.41,4.874,4.372c1.074,0.514,2.018-1.088,0.938-1.605&#10;&#9;&#9;&#9;&#9;&#9;&#9;c-1.227-0.587-2.321-1.345-3.226-2.369c-0.472-0.534-0.88-1.121-1.218-1.748c-0.19-0.346-0.354-0.704-0.493-1.074&#10;&#9;&#9;&#9;&#9;&#9;&#9;c-0.095-0.529,0.009-0.611,0.312-0.244c1.052,0.337,1.97,2.293,2.415,3.213c0.618,1.281,0.996,2.657,1.31,4.039&#10;&#9;&#9;&#9;&#9;&#9;&#9;C95.616,448.7,97.408,448.207,97.143,447.04L97.143,447.04z"/>
          </g>
          <g>
            <path d="M56.075,450.484c-0.908,0.77-2.324,0.914-3.327,1.61c-0.772,0.536-1.447,1.203-1.994,1.967&#10;&#9;&#9;&#9;&#9;&#9;&#9;c-0.976,1.363-2.054,3.755-0.972,5.329c2.737,3.983,7.289-4.696,7.853-6.672c0.329-1.152-1.464-1.644-1.792-0.494&#10;&#9;&#9;&#9;&#9;&#9;&#9;c-0.448,1.57-1.221,2.959-2.249,4.224c-0.377,0.464-0.915,1.282-1.442,1.574c-0.547,0.71-0.837,0.472-0.871-0.715&#10;&#9;&#9;&#9;&#9;&#9;&#9;c0.087-0.378,0.208-0.746,0.363-1.102c0.568-1.276,1.596-2.359,2.839-2.993c1.005-0.512,2.027-0.669,2.905-1.414&#10;&#9;&#9;&#9;&#9;&#9;&#9;C58.302,451.023,56.982,449.714,56.075,450.484L56.075,450.484z"/>
          </g>
          <g>
            <path d="M57.996,450.253c-0.66-2.049-2.746-3.361-4.514-4.415c-1.291-0.769-3.541-2.14-5.037-1.157&#10;&#9;&#9;&#9;&#9;&#9;&#9;c-1.587,1.043-0.54,3.032,0.501,4.03c1.676,1.607,3.972,2.078,6.2,2.313c1.188,0.126,1.179-1.734,0-1.858&#10;&#9;&#9;&#9;&#9;&#9;&#9;c-1.327-0.14-2.682-0.369-3.862-1.029c-0.701-0.392-2.45-2.323-0.636-1.636c1.814,0.688,4.932,2.307,5.556,4.245&#10;&#9;&#9;&#9;&#9;&#9;&#9;C56.569,451.881,58.364,451.396,57.996,450.253L57.996,450.253z"/>
          </g>
          <g>
            <path d="M38.765,460.695c-1.301,0.479-2.531,1.132-3.399,2.244c-0.664,0.851-1.288,2.23-0.964,3.339&#10;&#9;&#9;&#9;&#9;&#9;&#9;c0.346,1.184,1.727,1.029,2.561,0.5c1.166-0.739,2.078-2.048,2.734-3.232c0.58-1.047-1.024-1.986-1.605-0.938&#10;&#9;&#9;&#9;&#9;&#9;&#9;c-0.38,0.686-0.812,1.325-1.353,1.896c-0.215,0.227-0.516,0.434-0.715,0.67c-0.464,0.136-0.404,0.365,0.18,0.687&#10;&#9;&#9;&#9;&#9;&#9;&#9;c-0.015-0.161-0.004-0.321,0.031-0.478c0.235-1.525,1.697-2.406,3.022-2.895C40.372,462.077,39.891,460.28,38.765,460.695&#10;&#9;&#9;&#9;&#9;&#9;&#9;L38.765,460.695z"/>
          </g>
          <g>
            <path d="M40.473,468.222c0.955,0.318,1.861,0.726,2.714,1.261c0.503,0.315,2.277,1.301,2.283,1.926&#10;&#9;&#9;&#9;&#9;&#9;&#9;c0.091-0.219,0.181-0.438,0.272-0.657c-0.254,0.214-1.267-0.129-1.533-0.225c-0.615-0.224-1.155-0.6-1.625-1.049&#10;&#9;&#9;&#9;&#9;&#9;&#9;c-0.824-0.788-1.361-1.809-1.829-2.833c-0.496-1.086-2.099-0.143-1.605,0.938c0.736,1.61,1.731,3.143,3.253,4.11&#10;&#9;&#9;&#9;&#9;&#9;&#9;c1.107,0.703,3.144,1.413,4.361,0.613c2.871-1.887-4.554-5.461-5.798-5.875C39.829,466.052,39.341,467.846,40.473,468.222&#10;&#9;&#9;&#9;&#9;&#9;&#9;L40.473,468.222z"/>
          </g>
        </g>
      </g>
      <g>
        <path d="M128.724,449.423c0.658-1.619,2.743-3.718,4.438-4.144c0.588-0.147,1.261-0.183,1.749,0.176&#10;&#9;&#9;&#9;&#9;c0.468,0.344,0.643,0.96,0.703,1.537c0.264,2.529-1.075,4.926-2.461,7.058c-0.91,1.399-1.889,2.8-3.249,3.767&#10;&#9;&#9;&#9;&#9;c-0.336,0.239-0.715,0.455-1.127,0.453c-0.333-0.002-0.648-0.146-0.944-0.3c-3.466-1.801-5.994-5.305-6.609-9.163&#10;&#9;&#9;&#9;&#9;c-0.192-1.204-0.109-2.646,0.887-3.35c0.564-0.399,1.305-0.459,1.991-0.373C126.342,445.367,128.3,447.204,128.724,449.423"/>
      </g>
    </g>
    <g>
      <g>
        <g/>
        <g/>
        <g/>
        <g/>
        <g/>
        <g/>
        <g/>
        <g/>
        <g/>
        <g/>
      </g>
      <g>
        <g/>
        <g/>
        <g/>
        <g/>
        <g/>
        <g/>
        <g/>
        <g/>
        <g/>
        <g/>
      </g>
    </g>
    <g>
      <g>
        <g>
          <g/>
          <g/>
          <g/>
        </g>
        <g>
          <g/>
          <g/>
          <g/>
        </g>
      </g>
      <g>
        <g>
          <g/>
          <g/>
          <g/>
        </g>
        <g>
          <g/>
          <g/>
          <g/>
        </g>
      </g>
      <g/>
      <g/>
      <g/>
    </g>
    <g>
      <g>
        <g>
          <g/>
          <g/>
          <g/>
          <g/>
          <g/>
          <g/>
          <g/>
          <g/>
          <g/>
          <g/>
        </g>
        <g>
          <g/>
          <g/>
          <g/>
          <g/>
          <g/>
          <g/>
          <g/>
          <g/>
          <g/>
          <g/>
        </g>
      </g>
      <g>
        <g>
          <g/>
          <g/>
          <g/>
          <g/>
          <g/>
          <g/>
          <g/>
          <g/>
          <g/>
          <g/>
        </g>
        <g>
          <g/>
          <g/>
          <g/>
          <g/>
          <g/>
          <g/>
          <g/>
          <g/>
          <g/>
          <g/>
        </g>
      </g>
    </g>
    <g>
      <g>
        <g/>
        <g/>
        <g/>
        <g/>
        <g/>
      </g>
      <g>
        <g/>
        <g/>
        <g/>
        <g/>
        <g/>
      </g>
      <g>
        <g/>
        <g/>
        <g/>
        <g/>
        <g/>
      </g>
      <g>
        <g/>
        <g/>
        <g/>
        <g/>
        <g/>
      </g>
    </g>
    <g>
      <g>
        <g/>
        <g/>
        <g/>
        <g/>
        <g/>
        <g/>
        <g/>
        <g/>
      </g>
      <g>
        <g/>
        <g/>
        <g/>
        <g/>
        <g/>
        <g/>
        <g/>
        <g/>
      </g>
      <g>
        <g/>
        <g/>
        <g/>
        <g/>
        <g/>
        <g/>
        <g/>
        <g/>
      </g>
      <g>
        <g/>
        <g/>
        <g/>
        <g/>
        <g/>
        <g/>
        <g/>
        <g/>
      </g>
    </g>
    <g>
      <g>
        <g/>
        <g/>
        <g/>
        <g/>
        <g/>
      </g>
      <g>
        <g/>
        <g/>
        <g/>
        <g/>
        <g/>
      </g>
      <g>
        <g/>
        <g/>
        <g/>
        <g/>
        <g/>
      </g>
      <g>
        <g/>
        <g/>
        <g/>
        <g/>
        <g/>
      </g>
      <g>
        <g/>
        <g/>
        <g/>
        <g/>
        <g/>
      </g>
    </g>
    <g>
      <g>
        <g/>
        <g/>
        <g/>
        <g/>
        <g/>
        <g/>
      </g>
      <g>
        <g/>
        <g/>
        <g/>
        <g/>
        <g/>
        <g/>
      </g>
      <g>
        <g/>
        <g/>
        <g/>
        <g/>
        <g/>
        <g/>
      </g>
      <g>
        <g/>
        <g/>
        <g/>
        <g/>
        <g/>
        <g/>
      </g>
    </g>
    <g>
      <g>
        <g>
          <g/>
          <g/>
          <g/>
          <g/>
          <g/>
          <g/>
        </g>
        <g/>
        <g/>
        <g/>
      </g>
      <g>
        <g>
          <g/>
          <g/>
          <g/>
          <g/>
          <g/>
          <g/>
        </g>
        <g/>
        <g/>
        <g/>
      </g>
      <g>
        <g>
          <g/>
          <g/>
          <g/>
          <g/>
          <g/>
          <g/>
        </g>
        <g/>
        <g/>
        <g/>
      </g>
      <g>
        <g>
          <g/>
          <g/>
          <g/>
          <g/>
          <g/>
          <g/>
        </g>
        <g/>
        <g/>
        <g/>
      </g>
      <g>
        <g>
          <g/>
          <g/>
          <g/>
          <g/>
          <g/>
          <g/>
        </g>
        <g/>
        <g/>
        <g/>
      </g>
      <g>
        <g>
          <g/>
          <g/>
          <g/>
          <g/>
          <g/>
          <g/>
        </g>
        <g/>
        <g/>
        <g/>
      </g>
      <g>
        <g>
          <g/>
          <g/>
          <g/>
          <g/>
          <g/>
          <g/>
        </g>
        <g/>
        <g/>
        <g/>
      </g>
      <g>
        <g>
          <g/>
          <g/>
          <g/>
          <g/>
          <g/>
          <g/>
        </g>
        <g/>
        <g/>
        <g/>
      </g>
      <g>
        <g>
          <g/>
          <g/>
          <g/>
          <g/>
          <g/>
          <g/>
        </g>
        <g/>
        <g/>
        <g/>
      </g>
      <g>
        <g>
          <g/>
          <g/>
          <g/>
          <g/>
          <g/>
          <g/>
        </g>
        <g/>
        <g/>
        <g/>
      </g>
    </g>
    <g>
      <g>
        <g>
          <g/>
          <g/>
          <g/>
          <g/>
          <g/>
          <g/>
          <g/>
          <g/>
        </g>
        <g>
          <g/>
          <g/>
          <g/>
          <g/>
          <g/>
          <g/>
        </g>
        <g>
          <g/>
          <g/>
          <g/>
          <g/>
          <g/>
          <g/>
        </g>
      </g>
      <g>
        <g>
          <g/>
          <g/>
          <g/>
          <g/>
          <g/>
          <g/>
          <g/>
          <g/>
        </g>
        <g>
          <g/>
          <g/>
          <g/>
          <g/>
          <g/>
          <g/>
        </g>
        <g>
          <g/>
          <g/>
          <g/>
          <g/>
          <g/>
          <g/>
        </g>
      </g>
      <g/>
    </g>
    <g>
      <g>
        <g/>
        <g/>
        <g/>
        <g/>
        <g/>
        <g/>
        <g/>
        <g/>
        <g/>
        <g/>
        <g/>
        <g/>
      </g>
      <g>
        <g/>
        <g/>
        <g/>
        <g/>
        <g/>
        <g/>
        <g/>
        <g/>
        <g/>
        <g/>
        <g/>
        <g/>
      </g>
      <g>
        <g/>
        <g/>
        <g/>
        <g/>
        <g/>
        <g/>
        <g/>
        <g/>
        <g/>
        <g/>
        <g/>
        <g/>
      </g>
      <g>
        <g/>
        <g/>
        <g/>
        <g/>
        <g/>
        <g/>
        <g/>
        <g/>
        <g/>
        <g/>
        <g/>
        <g/>
      </g>
      <g>
        <g/>
        <g/>
        <g/>
        <g/>
        <g/>
        <g/>
        <g/>
        <g/>
        <g/>
        <g/>
        <g/>
        <g/>
      </g>
      <g>
        <g/>
        <g/>
        <g/>
        <g/>
        <g/>
        <g/>
        <g/>
        <g/>
        <g/>
        <g/>
        <g/>
        <g/>
      </g>
      <g>
        <g/>
        <g/>
        <g/>
        <g/>
        <g/>
        <g/>
        <g/>
        <g/>
        <g/>
        <g/>
        <g/>
        <g/>
      </g>
      <g>
        <g/>
        <g/>
        <g/>
        <g/>
        <g/>
        <g/>
        <g/>
        <g/>
        <g/>
        <g/>
        <g/>
        <g/>
      </g>
    </g>
  </g>
</svg>