<svg xmlns="http://www.w3.org/2000/svg" viewBox="0 0 3000 3000"><defs><radialGradient id="a" cx="1051.328" cy="2195.619" r="108.604" fx="1051.328" fy="2195.619" gradientTransform="rotate(2.172 1451.728 1243.976)" gradientUnits="userSpaceOnUse"><stop class="stopColorf9ed32 svgShape" offset="0" stop-color="#f9b532"/><stop class="stopColor6ec656 svgShape" offset="1" stop-color="#c6a056"/></radialGradient></defs><path fill="#f7e6db" d="M1430.168,1127.597s376.851-122.184,378.571-142.085c1.719-19.901-334.424,102.104-378.571,142.085Z" class="colorf2f4f7 svgShape"/><path fill="#f7e6db" d="M1694.222,1094.34c20.677,5.333,192.771-27.391,190.425-47.393-2.345-20.002-190.425,47.393-190.425,47.393Z" class="colorf2f4f7 svgShape"/><path fill="#f7e6db" d="M2140.391,1714.796c17.752,8.024,177.552,5.504,178.569-12.841,1.018-18.346-178.569,12.841-178.569,12.841Z" class="colorf2f4f7 svgShape"/><path fill="#f7e6db" d="M1656.598,1500.551s593.002-96.513,592.272-134.876c-.731-38.363-535.617,105.397-592.272,134.876Z" class="colorf2f4f7 svgShape"/><path fill="#f7e6db" d="M1619.978,1842.57s647.302-92.772,665.169-54.603c17.866,38.169-665.169,54.603-665.169,54.603Z" class="colorf2f4f7 svgShape"/><polygon fill="#d3a44a" points="2284.994 1651.381 2141.693 1653.786 2097.939 1471.17 2228.656 1416.24 2284.994 1651.381" class="colord3c24a svgShape"/><polygon fill="#b6985e" points="2143.563 1542.641 2225.159 1526.993 2233.411 1572.274 2153.651 1582.599 2143.563 1542.641" class="colorbcad53 svgShape"/><polygon fill="#e2b55d" points="2228.656 1416.24 2375.489 1398.109 2424.885 1604.271 2284.994 1651.381 2228.656 1416.24" class="colore2d55d svgShape"/><polygon fill="#b6985e" points="2107.668 1511.776 2240.565 1477.395 2384.027 1445.854 2245.941 1488.384 2107.668 1511.776" class="colorbcad53 svgShape"/><path fill="#b6985e" d="M2384.194,1511.005c-.236,0-.629,1.417-1.417,3.7-.866,2.441-2.282,5.905-4.723,9.054-1.181,1.495-2.598,2.913-4.33,3.936-.866.551-1.811.945-2.756,1.181-.472.157-.865.157-1.259,0-.315-.079-.551-.394-.866-.866-.551-.945-1.103-2.598-1.496-4.566,1.102-2.126,2.125-4.724,2.598-7.794.236-1.181.394-2.362.394-3.543.079-.63.079-1.26.079-1.89,0-1.024-.079-1.968-.158-2.913-.236-1.811-.708-3.543-1.338-4.803s-1.574-2.125-2.361-2.282c-1.18-.079-2.047.866-2.677,2.676-.237.315-.315.867-.472,1.339-.158.394-.315.945-.315,1.259-.157.787-.236,1.495-.315,2.283-.236,2.991,0,5.983.394,8.738.158,1.102.315,2.125.551,3.148-.237.315-.472.63-.63.945-1.652,2.204-3.7,4.094-5.825,5.668-2.125,1.496-4.409,2.677-6.849,3.385-1.181.394-2.441.63-3.7.787-1.259.079-2.519,0-3.7-.394-1.024-.315-2.047-1.024-2.834-2.047,0-.078.079-.078.079-.157,1.181-2.284,2.204-4.881,2.991-8.109.315-1.417.551-2.913.708-4.566.236-2.677-.078-5.59-.944-7.794-.394-1.102-.866-1.968-1.496-2.597-.63-.63-1.259-.945-1.889-.945-.315.078-.63.157-.945.394-.316.157-.63.394-.945.708-.158.158-.237.315-.393.472l-.394.472c-.157.157-.394.394-.551.629-1.259,1.968-2.204,4.566-2.677,7.794-.393,3.228-.237,6.928.551,10.313.079.472.236.944.315,1.416-.315.472-.63.946-.945,1.418-2.282,3.385-4.802,6.14-7.479,8.344-2.676,2.125-5.432,3.936-8.108,4.094-1.338.157-2.755-.158-3.622-1.024-.472-.472-.787-.945-1.102-1.653-.079-.237-.158-.551-.237-.866.394-.787.787-1.653,1.181-2.519.158-.551.394-.945.63-1.653.237-.63.394-1.338.551-1.968.158-.709.315-1.417.394-2.282.079-.867.237-1.733,0-3.465-.079-.787-.472-2.283-1.103-3.228-.315-.472-.708-.865-.945-.944-.157-.158-.315-.236-.393-.236-.158-.079-.237-.079-.315-.079-.787-.237-1.574.157-2.047.787-.551.551-.866,1.338-1.181,2.125-.237.708-.394,1.496-.551,2.204-.236,1.495-.394,2.991-.551,4.487,0,.709-.079,1.654-.079,2.599.079.629.157,1.259.157,1.81-1.653,2.913-3.543,5.118-5.51,6.771-.945.787-2.047,1.495-2.992,1.968-.472.236-.945.315-1.26.315-.394-.079-.551-.237-.708-.394-.079-.158-.315-.709-.472-1.496-.079-.551-.157-1.338-.315-2.125.394-.709.708-1.417,1.023-2.283.393-1.181.788-2.598,1.102-4.173.158-.786.237-1.574.315-2.598.079-.472.079-.945.079-1.574,0-.315,0-.629-.079-.944,0-.472-.078-.788-.157-1.26-.079-.236-.158-.472-.237-.708-.079-.237-.236-.472-.315-.709-.237-.472-.63-.865-.866-1.023-.551-.394-.866-.315-1.259-.315-.787.079-1.496.866-1.889,1.889-.708,2.047-.866,4.251-.866,6.377,0,2.204.079,4.33.315,6.612,0,.315,0,.551.079.867-.158.157-.236.394-.394.629-1.653,2.913-3.228,4.644-4.33,5.904-1.023,1.26-1.574,1.968-1.495,2.204.078.236.787.079,1.968-.708s2.913-2.047,4.723-4.487c.315,1.18.63,2.518,1.338,3.7.393.708.866,1.259,1.417,1.574.472.394.866.551,1.338.708.787.158,1.496,0,2.204-.315,1.181-.472,2.361-1.102,3.464-1.968,1.889-1.417,3.7-3.306,5.353-5.59.709,1.733,1.733,3.386,2.756,4.409,1.102,1.024,2.126,1.496,3.07,1.811.945.315,1.811.393,2.677.315,1.811-.079,3.464-.63,5.039-1.417,1.495-.866,2.991-1.811,4.487-2.991,2.913-2.362,5.668-5.353,8.187-9.054.315-.394.551-.787.787-1.181.158.315.394.63.63.866,1.653,2.283,3.464,3.385,5.118,3.936,1.573.472,3.148.551,4.566.394,1.417-.236,2.756-.551,4.093-.945,2.677-.866,5.118-2.282,7.479-4.015,2.204-1.731,4.172-3.7,6.062-6.219.472,1.574,1.102,3.227,1.968,4.723.708,1.102,1.653,1.89,2.44,2.125.787.158,1.496,0,2.047-.158,1.103-.472,2.126-1.023,2.991-1.731,1.89-1.417,3.386-3.149,4.566-5.118,2.362-3.778,3.622-7.872,4.251-10.785.63-2.913.709-4.723.551-4.802ZM2297.126,1532.732c0-1.732.079-3.385.394-4.172.079-.315.158-.472.315-.551v.708c-.078.63-.157,1.338-.236,1.968-.079.866-.236,1.653-.472,2.361v-.315ZM2339.322,1515.571c-.394,1.653-.945,3.227-1.653,4.723,0-.945,0-1.89.158-2.756.236-1.732.787-3.385,1.574-4.566l.315-.394h.079c-.079.944-.236,1.968-.472,2.991ZM2367.032,1508.879c0,.394-.079.866-.079,1.259-.078.787-.157,1.575-.315,2.362-.157.944-.394,1.81-.708,2.598-.157-1.811-.236-3.7-.078-5.275.078-.394.157-.866.236-1.338q.079-.236.079-.315t.078-.158c.079-.236.158-.394.315-.394.315,0,.393.63.472,1.024v.236Z" class="colorbcad53 svgShape"/><g class="color000000 svgShape"><polygon fill="#e2b55d" points="1915.259 907.82 2003.809 864.618 1909.273 859.438 1826.138 893.333 1915.259 907.82" class="colore2d55d svgShape"/><polygon fill="#e2b55d" points="1922.357 968.549 1935.183 1020.032 2024.254 961.674 2035.591 913.999 1922.357 968.549" class="colore2d55d svgShape"/><polygon fill="#d3a44a" points="1927.876 967.722 1807.035 945.29 1842.351 992.864 1935.183 1020.032 1927.876 967.722" class="colord3c24a svgShape"/><polygon fill="#b98c34" points="1915.259 907.82 1922.527 982.509 2040.899 912.882 2003.809 864.618 1915.259 907.82" class="color97b934 svgShape"/><polygon fill="#ac8c4e" points="1826.138 893.333 1804.992 950.845 1922.527 982.509 1915.259 907.82 1826.138 893.333" class="color63ac4e svgShape"/><path fill="#e2b55d" d="M1944.748,934.977l3.385-1.732-1.26-2.441-3.385,1.654-2.282-4.487,4.644-2.361-1.259-2.441-7.085,3.543,8.345,16.532,2.44-1.259-3.542-7.006Z" class="colore2d55d svgShape"/><path fill="#e2b55d" d="M1960.571,931.041l-4.487-8.974c-.551-1.103-1.418-1.89-2.599-2.205-1.181-.394-2.282-.315-3.385.237-1.102.551-1.811,1.417-2.204,2.519-.394,1.181-.315,2.283.237,3.386l4.566,9.052c.551,1.103,1.417,1.811,2.598,2.205,1.103.394,2.283.315,3.385-.237,1.103-.551,1.811-1.417,2.204-2.598s.315-2.283-.315-3.385ZM1957.264,934.505c-.394.157-.786.157-1.18.079-.394-.158-.709-.394-.945-.787l-4.566-9.054c-.237-.394-.237-.787-.079-1.259.158-.394.394-.708.787-.866.394-.236.788-.236,1.26-.157.394.157.708.472.865.865l4.566,8.975c.236.394.236.787.157,1.259-.157.394-.472.708-.866.945Z" class="colore2d55d svgShape"/><path fill="#e2b55d" d="M1970.647,925.924l-4.566-8.975c-.551-1.102-1.417-1.811-2.597-2.204-1.103-.394-2.284-.315-3.386.236-1.023.551-1.811,1.416-2.125,2.598-.394,1.181-.315,2.282.236,3.385l4.566,8.975c.551,1.102,1.417,1.81,2.519,2.204,1.181.394,2.283.315,3.385-.236,1.103-.551,1.811-1.417,2.205-2.598.394-1.103.315-2.283-.237-3.385ZM1967.341,929.388c-.394.237-.788.237-1.26.079-.394-.079-.708-.394-.945-.788l-4.566-9.053c-.158-.394-.236-.787-.079-1.181.158-.394.394-.708.787-.945.473-.158.866-.236,1.259-.079.394.158.709.394.946.788l4.566,9.052c.157.394.236.788.079,1.181-.158.472-.394.708-.787.945Z" class="colore2d55d svgShape"/><path fill="#e2b55d" d="M1980.566,920.729l-4.409-8.66c-.551-1.102-1.338-1.81-2.519-2.204-1.181-.394-2.282-.315-3.385.236l-3.857,1.968,8.345,16.533,3.857-1.968c1.102-.551,1.81-1.417,2.204-2.598.394-1.103.316-2.282-.236-3.306ZM1977.496,924.114l-1.496.787-5.825-11.494,1.496-.787c.394-.158.786-.236,1.181-.079.394.158.708.394.945.788l4.33,8.66c.236.394.236.787.157,1.181-.157.472-.394.787-.787.945Z" class="colore2d55d svgShape"/><path fill="#e2b55d" d="M1990.801,914.667c-.237-.394-.472-.787-.709-1.103-.472-.551-.945-1.024-1.338-1.338-.708-.394-1.417-.551-2.047-.551.237-.315.394-.629.472-1.023.315-1.024.157-2.047-.394-3.149-.394-.629-.787-1.181-1.181-1.653-.709-.709-1.575-1.181-2.441-1.26-1.102-.157-2.125.079-3.07.551l-3.7,1.89,8.345,16.532,4.566-2.361c.63-.315,1.182-.788,1.653-1.496.315-.63.551-1.338.551-2.047.078-.945-.237-1.89-.708-2.991ZM1982.456,912.384l-2.126-4.173,1.024-.551c.472-.237,1.024-.237,1.496-.079.472.157.944.551,1.259,1.259.236.394.315.787.394,1.103.079.944-.237,1.574-1.024,1.968l-1.023.472ZM1987.179,919.233l-1.024.472-2.519-4.881,1.102-.551c.551-.315,1.181-.394,1.654-.158.551.237,1.102.866,1.574,1.81.157.315.315.709.315,1.103.158,1.024-.236,1.732-1.102,2.204Z" class="colore2d55d svgShape"/><path fill="#e2b55d" d="M2001.192,910.494l-4.566-9.053c-.551-1.024-1.338-1.811-2.519-2.204s-2.283-.236-3.385.315c-1.103.551-1.811,1.338-2.204,2.52-.394,1.181-.315,2.282.236,3.385l4.566,8.974c.551,1.102,1.417,1.89,2.598,2.283,1.102.315,2.283.236,3.385-.315,1.024-.551,1.811-1.338,2.204-2.518.316-1.181.237-2.284-.315-3.386ZM1997.886,913.88c-.394.236-.788.236-1.181.157-.472-.157-.787-.394-.945-.787l-4.566-9.054c-.237-.394-.237-.786-.079-1.259.079-.394.393-.709.787-.866.394-.237.787-.237,1.181-.158.472.158.788.394.945.787l4.566,9.053c.236.394.236.787.078,1.259-.078.394-.393.709-.786.867Z" class="colore2d55d svgShape"/><path fill="#e2b55d" d="M2013.394,909.077l-7.479-6.691-.866-9.841-2.756,1.417.708,5.983-4.408-4.172-2.756,1.416,7.4,6.535.945,9.998,2.676-1.417-.708-6.219,4.566,4.33,2.677-1.339Z" class="colore2d55d svgShape"/><g class="color000000 svgShape"><path fill="#e2b55d" d="M1850.593,923.248l.63-2.834-7.951-1.889-4.409,18.736,2.834.629,1.81-7.951,3.858.944.629-2.834-3.778-.945,1.181-5.117,5.195,1.259Z" class="colore2d55d svgShape"/><path fill="#e2b55d" d="M1860.828,924.035c-.551-1.024-1.653-1.732-3.228-2.125l-4.408-1.024-4.33,18.657,2.755.709,1.654-7.085,1.652.394c.079,0,.158.079.237.079l.079,7.4,3.07.708-.236-8.66c1.259-.629,2.047-1.653,2.283-2.991l.709-2.677c.315-1.338.236-2.519-.237-3.385ZM1857.6,929.546c-.078.472-.315.787-.708,1.023s-.787.315-1.259.236l-1.653-.394,1.338-5.983,1.733.394c1.102.237,1.495.867,1.259,1.968l-.708,2.756Z" class="colore2d55d svgShape"/><path fill="#e2b55d" d="M1872.401,928.365l.708-2.834-8.03-1.89-4.408,18.657,8.029,1.89.708-2.834-5.196-1.181,1.181-5.118,3.779.867.629-2.834-3.778-.866,1.181-5.117,5.196,1.259Z" class="colore2d55d svgShape"/><path fill="#e2b55d" d="M1879.722,936.867c-.158-.237-.472-.709-1.024-1.417-.472-.63-.788-1.103-1.024-1.496-.472-1.102-.629-2.047-.472-2.913.158-.472.394-.945.63-1.259.394-.394.866-.551,1.338-.394.551.079.866.315,1.024.708.315.472.394,1.181.236,1.968l2.834.078c.157-.787.078-1.574-.079-2.282-.237-.709-.551-1.259-1.024-1.732-.63-.63-1.417-1.103-2.44-1.338-1.024-.237-1.968-.158-2.834.236-1.338.551-2.204,1.732-2.598,3.464-.237.945-.237,1.811,0,2.756.236.787.708,1.732,1.417,2.913.866,1.26,1.495,2.283,1.968,2.913.551.945.709,1.811.551,2.599-.158.551-.315.944-.63,1.181-.472.472-1.023.629-1.653.551-.472-.079-.787-.394-1.023-.788-.394-.629-.472-1.495-.315-2.598l-2.755-.394c-.158.945-.158,1.89,0,2.756.157.866.472,1.574,1.023,2.204.551.708,1.417,1.181,2.52,1.416.629.158,1.181.237,1.653.158.865-.079,1.653-.315,2.204-.866.945-.787,1.574-1.811,1.81-3.07.158-.551.158-1.181,0-1.889,0-.315-.078-.63-.236-1.024-.236-.788-.551-1.574-1.102-2.44Z" class="colore2d55d svgShape"/><path fill="#e2b55d" d="M1892.947,930.175l-1.889,7.872-3.385-.787,1.81-7.872-2.755-.709-4.409,18.736,2.834.63,1.811-7.951,3.464.788-1.89,7.951,2.834.63,4.33-18.658-2.756-.629Z" class="colore2d55d svgShape"/></g></g><g class="color000000 svgShape"><path fill="#eeded3" d="M704.636,2710.674c-64.944-.008-119.741-48.669-127.459-113.192L320.457,405.149c-3.652-30.52,5.973-61.291,26.421-84.328,20.484-23.079,49.857-36.317,80.591-36.317,3.738,0,7.526.196,11.264.583l807.402,83.705c59.863,6.206,106.835,52.252,114.229,111.975l249.699,2056.575c3.623,29.266-5.106,59.169-23.957,81.956-18.85,22.786-46.584,36.962-76.09,38.895l-796.906,52.203c-2.837.185-5.652.277-8.457.277h-.018Z" class="colord3dfee svgShape"/><path fill="#e5c8b5" d="M744.632,2676.17c-64.944-.008-119.741-48.669-127.459-113.192L360.453,370.645c-3.652-30.52,5.973-61.291,26.421-84.328,20.484-23.079,49.857-36.317,80.591-36.317,3.738,0,7.526.196,11.264.583l807.402,83.705c59.863,6.206,106.836,52.252,114.23,111.975l249.698,2056.575c3.623,29.266-5.106,59.169-23.957,81.956-18.849,22.786-46.584,36.962-76.09,38.895l-796.906,52.203c-2.837.185-5.652.277-8.456.277h-.019Z" class="colorb5c9e5 svgShape"/><path fill="#f7e6db" d="M1605.053,2508.323l-249.685-2056.489c-4.759-38.415-35.407-68.459-73.91-72.45l-807.402-83.703c-39.909-4.137-73.344,29.828-68.577,69.668l256.711,2192.243c5.247,43.855,43.881,75.946,87.955,73.059l796.904-52.202c35.901-2.352,62.427-34.422,58.004-70.127Z" class="colorf2f4f7 svgShape"/><path fill="#fff" d="M1346.763,1140.731l-44.866-357.517c-.97-7.831-7.218-13.956-15.067-14.77l-706.617-20.391c-8.136-.843-14.952,6.081-13.98,14.202l46.298,385.191c1.069,8.94,8.945,15.482,17.93,14.894l704.478-7.315c7.318-.479,12.726-7.017,11.824-14.295Z" class="colorffffff svgShape"/><polygon fill="#eeded3" points="1106.487 1036.016 1102.674 999.417 1153.623 1000.458 1157.436 1037.057 1106.487 1036.016" class="colord3dfee svgShape"/><polygon fill="#eeded3" points="1043.535 1034.729 1039.722 998.131 1090.672 999.172 1094.485 1035.771 1043.535 1034.729" class="colord3dfee svgShape" opacity=".49"/><polygon fill="#eeded3" points="921.699 966.833 969.855 926.115 999.73 962.196 951.573 1002.915 921.699 966.833" class="colord3dfee svgShape"/><polygon fill="#eeded3" points="793.352 879.535 869.249 815.362 916.332 872.23 840.436 936.403 793.352 879.535" class="colord3dfee svgShape" opacity=".35"/><polygon fill="#eeded3" points="718.677 892.808 632.836 891.054 643.388 992.335 783.425 960.893 718.677 892.808" class="colord3dfee svgShape" opacity=".25"/><path fill="#eeded3" d="M644.77,1014.221l148.582-34.448s58.564,58.974,134.493,74.455l-88.461,85.512-181.345-3.344-13.269-122.175Z" class="colord3dfee svgShape" opacity=".2"/><path fill="#eeded3" d="M941.001,1065.712s61.053,19.231,103.318,20.214c42.265.983,113.117,0,113.117,0l1.64,53.814h-277.428l59.352-74.028Z" class="colord3dfee svgShape" opacity=".2"/><polygon fill="#eeded3" points="1159.077 785.749 1279.478 788.65 1293.049 949.699 1176.519 949.699 1159.077 785.749" class="colord3dfee svgShape" opacity=".2"/><polygon fill="#eeded3" points="913.784 779.783 1140.919 785.449 1158.474 950.768 1062.644 945.349 913.784 779.783" class="colord3dfee svgShape" opacity=".2"/><path fill="#eeded3" d="M1300.04,991.67l-2.73-21.771-247.732-5.069-178.715-193.337-29.049-.78,102.94,107.619-105.474,76.945c-7.409-6.044-14.752-12.348-21.836-19.041l-87.278-81.56-116.132-2.339,2.664,21.771,107.229,2.21,80.454,75.256c79.35,74.216,178.91,116.263,280.421,118.277l88.058,1.82,6.758,64.727,20.926-.195-15.337-146.871,114.833,2.339ZM1082.527,1047.949c-79.414-1.56-157.399-29.049-224.466-78.05l102.03-74.541,82.014,91.047,122.111,2.535,6.369,60.828-88.057-1.82Z" class="colord3dfee svgShape" opacity=".5"/><path fill="#e5c8b5" d="M740.822,842.914c-3.254-21.677-21.942-38.36-44.528-38.36s-41.198,16.683-44.527,38.36c0,0-.529,4.843-.529,6.735,0,31.097,45.056,83.456,45.056,83.456,0,0,11.274-13.09,22.586-30.075,11.274-16.948,22.548-37.832,22.548-53.38,0-1.892-.605-6.735-.605-6.735ZM696.294,874.125c-12.446,0-22.472-10.024-22.472-22.472s10.026-22.547,22.472-22.547,22.547,10.101,22.547,22.547-10.1,22.472-22.547,22.472Z" class="colorb5c9e5 svgShape"/><path fill="#eeded3" d="M718.841,851.654c0,12.447-10.1,22.472-22.547,22.472s-22.472-10.024-22.472-22.472,10.026-22.547,22.472-22.547,22.547,10.101,22.547,22.547Z" class="colord3dfee svgShape"/><g class="color000000 svgShape"><path fill="#eeded3" d="M595.071,495.495c-.285-2.852-.642-5.776-1.069-8.699-.357-2.923-.856-5.776-1.355-8.699-1.069-6.061-2.995-11.195-5.918-15.473-2.924-4.279-6.489-7.63-10.838-9.983-4.421-2.424-9.27-3.78-14.761-4.136-5.348-.428-9.982.286-13.833,2.068-3.85,1.854-6.631,4.706-8.343,8.699-1.711,3.993-2.282,9.056-1.711,15.117.356,2.924.713,5.847,1.14,8.77.428,2.924.856,5.918,1.355,8.771,1.07,6.203,3.066,11.408,5.918,15.616,2.924,4.278,6.489,7.487,10.91,9.769,4.35,2.282,9.27,3.637,14.831,3.922,5.49.356,10.126-.356,13.905-2.139,3.78-1.783,6.489-4.635,8.2-8.557,1.783-3.922,2.282-8.913,1.569-15.046ZM576.674,503.909c-1.711,2.068-4.135,2.995-7.344,2.781-3.137-.214-5.847-1.426-8.129-3.708-2.353-2.282-3.922-5.847-4.778-10.553-.428-2.995-.856-5.776-1.212-8.414-.428-2.639-.784-5.348-1.069-8.201-.356-3.137-.143-5.704.499-7.63.713-1.925,1.782-3.28,3.28-4.135,1.497-.856,3.208-1.141,5.276-.998,2.068.142,3.993.713,5.776,1.782,1.712,1.069,3.209,2.567,4.421,4.635,1.212,2.068,2.068,4.635,2.638,7.844.499,2.78.999,5.561,1.355,8.2.356,2.567.713,5.348.999,8.342.57,4.707-.071,8.058-1.712,10.054Z" class="colord3dfee svgShape"/><path fill="#eeded3" d="M650.761,458.344c-.071-.784-.356-1.354-.856-1.854-.499-.499-1.069-.784-1.712-.856l-10.482-.713c-.642-.071-1.141.142-1.497.571-.356.428-.428.998-.356,1.782l5.348,37.721-26.954-39.861c-.142-.285-.499-.713-.998-1.212-.499-.499-1.284-.856-2.282-.927l-9.412-.642c-.642-.071-1.141.142-1.498.57-.285.428-.427,1.07-.356,1.782l9.27,65.316c.071.642.357,1.284.856,1.783.499.57,1.069.856,1.711.856l10.625.642c.642.071,1.141-.143,1.498-.642.285-.499.428-1.07.356-1.712l-5.205-36.508,26.811,38.362c.142.214.428.642.927,1.212.57.499,1.284.856,2.21.927l9.341.57c.642,0,1.14-.214,1.497-.713.357-.428.428-1.07.357-1.782l-9.199-64.675Z" class="colord3dfee svgShape"/><path fill="#eeded3" d="M714.865,516.672c-.071-.784-.356-1.354-.856-1.925-.499-.499-.997-.785-1.639-.785l-26.169-1.639-7.416-52.053c-.072-.714-.357-1.284-.856-1.783-.428-.499-.998-.784-1.64-.856l-11.48-.784c-.642-.071-1.141.143-1.498.571-.285.428-.428.998-.356,1.782l9.199,64.674c.142.642.427,1.212.855,1.783.499.499,1.07.784,1.712.856l39.788,2.353c.642.071,1.07-.143,1.427-.642s.428-.998.356-1.711l-1.427-9.841Z" class="colord3dfee svgShape"/><path fill="#eeded3" d="M739.537,527.939l-9.127-64.032c-.071-.714-.428-1.284-.927-1.783-.428-.499-.999-.784-1.641-.784l-11.48-.856c-.642,0-1.07.143-1.427.571-.356.499-.428,1.069-.356,1.782l9.199,64.175c.071.642.356,1.212.784,1.712.499.571,1.069.856,1.712.856l11.409.713c.642,0,1.141-.214,1.497-.642.356-.499.499-1.069.356-1.712Z" class="colord3dfee svgShape"/><path fill="#eeded3" d="M791.091,468.256c-.142-.784-.428-1.354-.856-1.854-.428-.428-.998-.713-1.568-.784l-10.126-.713c-.57,0-1.069.142-1.354.57-.357.428-.499.999-.357,1.712l5.277,36.936-25.955-38.933c-.143-.285-.499-.713-.927-1.212-.499-.499-1.283-.784-2.21-.856l-8.984-.642c-.642-.071-1.141.143-1.427.571-.356.428-.428.998-.356,1.711l9.127,63.89c.143.642.428,1.284.856,1.783.499.499.998.784,1.64.784l10.197.642c.571.071,1.07-.143,1.426-.642.285-.499.428-.999.285-1.712l-5.062-35.653,25.741,37.507c.142.214.428.571.927,1.141.499.57,1.212.856,2.139.927l8.914.499c.642.071,1.141-.143,1.426-.642.356-.428.428-1.07.356-1.783l-9.127-63.248Z" class="colord3dfee svgShape"/><path fill="#eeded3" d="M854.054,525.872c-.143-.714-.428-1.284-.856-1.783-.428-.499-.999-.713-1.569-.784l-27.025-1.64-1.925-13.548,24.529,1.569c.571.071,1.069-.142,1.354-.57.357-.499.428-1.069.357-1.712l-1.212-8.414c-.143-.713-.356-1.284-.856-1.783-.428-.499-.999-.784-1.569-.856l-24.529-1.639-1.925-13.12,26.383,1.854c.571,0,1.07-.143,1.355-.571.356-.428.428-.998.356-1.711l-1.355-9.056c-.071-.712-.356-1.354-.784-1.782-.499-.499-.998-.784-1.569-.784l-38.719-2.781c-.57-.071-1.069.143-1.426.571-.285.428-.428.998-.285,1.711l9.127,63.32c.071.642.357,1.212.784,1.711.499.499.998.784,1.639.856l39.29,2.353c.642,0,1.069-.214,1.426-.642.285-.499.356-.998.285-1.64l-1.283-9.127Z" class="colord3dfee svgShape"/><path fill="#eeded3" d="M925.075,521.736c-.571-3.85-1.711-7.131-3.565-9.84-1.782-2.638-4.279-4.92-7.559-6.703-3.209-1.854-7.344-3.494-12.407-4.849-3.067-.999-5.562-1.925-7.345-2.71-1.782-.856-3.137-1.712-3.993-2.71-.856-1.07-1.426-2.211-1.569-3.494-.356-1.997.143-3.494,1.284-4.421,1.212-.856,2.995-1.212,5.348-1.07,2.21.143,4.064.784,5.633,1.926,1.498,1.141,2.496,2.424,3.066,3.85.428.642.856,1.069,1.284,1.354.499.286.999.428,1.64.499l10.625.713c.499,0,.927-.142,1.141-.57.214-.356.285-.856.214-1.355-.357-1.997-1.141-4.135-2.496-6.346-1.284-2.21-2.995-4.349-5.205-6.346-2.21-2.067-4.849-3.779-7.844-5.133-2.995-1.355-6.346-2.139-10.054-2.425-4.635-.285-8.485.286-11.551,1.783-3.138,1.497-5.42,3.708-6.846,6.631-1.426,2.924-1.854,6.346-1.284,10.268.571,3.993,1.854,7.416,3.708,10.126,1.925,2.78,4.493,5.063,7.63,6.916,3.137,1.782,6.774,3.352,11.052,4.635,3.28.997,5.99,1.925,7.986,2.78,1.997.856,3.565,1.782,4.493,2.71.999.927,1.64,2.139,1.854,3.637.285,1.997-.285,3.494-1.711,4.564-1.427.998-3.708,1.426-6.846,1.283-1.783-.143-3.422-.499-4.778-1.141-1.426-.642-2.567-1.426-3.423-2.353-.927-.927-1.711-1.925-2.281-2.924-.357-.499-.785-.927-1.284-1.283-.427-.356-1.069-.57-1.782-.642l-10.268-.642c-.499,0-.856.143-1.141.571-.356.428-.428.855-.356,1.354.571,3.351,1.997,6.56,4.278,9.627,2.282,3.066,5.348,5.633,9.199,7.701,3.85,1.997,8.486,3.209,13.904,3.565,4.778.285,8.843-.356,12.265-1.782,3.351-1.498,5.847-3.708,7.487-6.703,1.639-3.066,2.139-6.703,1.497-11.052Z" class="colord3dfee svgShape"/><path fill="#eeded3" d="M974.703,481.163c-.071-.642-.357-1.212-.784-1.712-.428-.499-.927-.713-1.497-.784l-10.197-.713c-.642,0-1.069.143-1.354.57-.285.428-.428.999-.285,1.64l3.352,22.889-19.61-1.283-3.351-22.961c-.071-.712-.356-1.283-.784-1.782-.499-.428-.999-.713-1.641-.713l-10.267-.784c-.571,0-1.07.142-1.355.57s-.427.999-.285,1.712l9.056,62.036c.071.713.357,1.283.784,1.782.428.428.927.714,1.497.714l10.339.642c.57,0,1.069-.214,1.355-.642.356-.428.499-.999.356-1.64l-3.423-23.745,19.538,1.284,3.422,23.674c.143.642.356,1.212.856,1.712.428.499.927.712,1.497.784l10.197.571c.571.071.998-.143,1.284-.571.357-.499.428-.998.357-1.639l-9.056-61.608Z" class="colord3dfee svgShape"/><path fill="#eeded3" d="M1037.809,524.017c-.285-2.71-.642-5.419-1.069-8.129-.428-2.71-.856-5.42-1.355-8.129-.998-5.633-2.781-10.482-5.348-14.475-2.567-3.922-5.776-7.059-9.555-9.199-3.85-2.21-8.129-3.494-12.835-3.85-4.705-.285-8.699.356-11.979,2.068s-5.633,4.42-7.059,8.129c-1.497,3.78-1.926,8.414-1.284,14.118.356,2.71.713,5.419,1.141,8.129.428,2.781.856,5.49,1.284,8.2,1.069,5.776,2.852,10.625,5.419,14.546,2.496,3.922,5.705,6.988,9.555,9.056,3.78,2.139,8.129,3.351,12.906,3.637,4.778.285,8.771-.428,12.051-2.139,3.209-1.64,5.562-4.278,6.988-7.986,1.426-3.636,1.782-8.342,1.141-13.976ZM1021.907,531.932c-1.426,1.854-3.494,2.781-6.274,2.567-2.71-.142-5.063-1.283-7.131-3.422-2.068-2.139-3.423-5.419-4.279-9.84-.428-2.71-.856-5.348-1.212-7.773-.356-2.495-.713-5.062-1.069-7.701-.285-2.923-.214-5.276.356-7.059.571-1.854,1.497-3.137,2.781-3.922s2.781-1.069,4.564-.998c1.854.142,3.494.713,5.063,1.711,1.497.927,2.78,2.353,3.85,4.278,1.07,1.926,1.925,4.35,2.424,7.273.499,2.638.927,5.205,1.284,7.63.356,2.495.713,5.063.998,7.844.57,4.35.071,7.487-1.355,9.412Z" class="colord3dfee svgShape"/><path fill="#eeded3" d="M1088.436,508.187c-.713-4.849-2.139-8.913-4.35-12.193s-4.992-5.847-8.414-7.629c-3.352-1.783-7.131-2.852-11.337-3.138l-21.534-1.569c-.571,0-.999.143-1.284.571-.356.428-.427.998-.356,1.639l8.985,60.896c.143.642.356,1.212.784,1.711s.927.713,1.497.784l10.411.642c.57,0,.998-.214,1.355-.642.285-.428.427-.999.285-1.569l-2.995-20.536,9.127.57c4.207.286,7.773-.214,10.696-1.497,2.924-1.284,4.991-3.423,6.275-6.418,1.284-2.995,1.569-6.846.856-11.623ZM1073.248,513.178c-1.069,1.284-2.781,1.854-4.92,1.64l-8.985-.57-2.495-16.686,8.984.571c2.567.214,4.493,1.141,5.847,2.852,1.355,1.64,2.211,3.708,2.567,6.061.428,2.781.071,4.849-.999,6.132Z" class="colord3dfee svgShape"/><path fill="#eeded3" d="M1139.42,511.61c-.714-4.778-2.139-8.842-4.35-12.051-2.211-3.28-4.92-5.776-8.2-7.559-3.352-1.782-7.059-2.852-11.267-3.137l-21.106-1.497c-.571-.071-.999.143-1.284.571-.285.356-.356.927-.285,1.639l8.914,60.325c.143.642.356,1.212.784,1.711.428.428.927.713,1.497.784l10.197.571c.571.071.999-.143,1.284-.571.356-.499.428-.999.356-1.64l-2.995-20.322,8.913.642c4.207.214,7.701-.285,10.553-1.569,2.852-1.284,4.92-3.422,6.204-6.346,1.212-2.995,1.497-6.845.784-11.551ZM1124.445,516.53c-1.07,1.284-2.638,1.854-4.848,1.712l-8.771-.571-2.495-16.614,8.842.642c2.496.143,4.421,1.069,5.776,2.781,1.354,1.639,2.139,3.636,2.495,5.989.428,2.781.071,4.849-.999,6.061Z" class="colord3dfee svgShape"/><path fill="#eeded3" d="M1157.531,494.14c-.071-.714-.356-1.284-.784-1.712-.428-.499-.927-.713-1.498-.784l-9.982-.642c-.499-.071-.927.143-1.212.499-.285.428-.356.927-.285,1.639l8.913,59.897c.071.57.356,1.141.784,1.639.428.428.856.713,1.426.713l9.983.642c.57,0,.927-.143,1.284-.642.285-.428.356-.927.285-1.568l-8.913-59.683Z" class="colord3dfee svgShape"/><path fill="#eeded3" d="M1210.369,497.848c-.071-.642-.356-1.212-.784-1.712-.356-.427-.856-.642-1.355-.712l-8.771-.642c-.57,0-.998.143-1.212.571-.286.428-.428.927-.286,1.639l5.134,34.441-23.174-36.294c-.143-.214-.428-.642-.856-1.07-.428-.499-1.069-.784-1.854-.856l-7.844-.571c-.571,0-.999.143-1.284.571-.214.428-.356.927-.214,1.64l8.913,59.612c.071.642.285,1.141.713,1.64s.927.713,1.426.784l8.842.499c.571.071.999-.143,1.284-.571.214-.428.356-.999.214-1.569l-4.92-33.371,22.96,35.011c.071.143.357.499.856.998.428.499.998.784,1.782.856l7.844.499c.499,0,.927-.214,1.212-.642.286-.428.356-.998.214-1.639l-8.842-59.113Z" class="colord3dfee svgShape"/><path fill="#eeded3" d="M1269.838,538.848l-1.569-10.339c-.142-.642-.356-1.213-.784-1.712-.356-.428-.856-.713-1.355-.713l-18.112-1.212c-.57-.071-.926.143-1.212.571-.286.428-.356.998-.214,1.639l.999,6.703c.071.713.356,1.212.712,1.712.428.499.927.713,1.427.784l6.774.428.214,1.711c.428,2.567.356,4.707-.214,6.275-.571,1.641-1.498,2.782-2.781,3.495-1.355.713-2.852.998-4.635.856-2.781-.143-5.063-1.213-6.988-3.209-1.925-1.997-3.28-5.063-4.065-9.341-.927-5.348-1.711-10.554-2.352-15.759-.499-3.993-.071-6.846,1.284-8.556,1.283-1.712,3.351-2.424,5.989-2.282,1.854.142,3.352.57,4.635,1.426,1.212.784,2.21,1.712,3.066,2.71.784,1.07,1.426,2.068,1.854,2.995.285.428.571.714.856.999.285.214.713.356,1.212.356l10.482.714c.428.071.784-.143,1.069-.428.214-.356.286-.784.214-1.355-.356-2.139-1.212-4.421-2.567-6.703-1.355-2.282-3.066-4.421-5.277-6.418-2.139-1.996-4.706-3.637-7.63-4.991-2.995-1.284-6.275-2.068-9.84-2.353-4.492-.286-8.272.356-11.338,1.997-2.995,1.64-5.205,4.207-6.489,7.629-1.283,3.423-1.711,7.773-1.069,12.907.356,2.638.714,5.419,1.141,8.414.428,2.924.927,5.705,1.355,8.272.998,5.276,2.638,9.84,4.991,13.619,2.424,3.78,5.348,6.774,8.984,8.842,3.565,2.139,7.63,3.28,12.194,3.565,4.563.286,8.414-.428,11.551-2.21,3.137-1.783,5.348-4.421,6.631-7.986,1.355-3.565,1.64-7.915.856-13.049Z" class="colord3dfee svgShape"/><path fill="#eeded3" d="M657.464,624.059c-.642-5.348-1.284-10.125-1.854-14.332-.57-4.135-1.354-8.984-2.21-14.475-1.925-11.267-5.491-20.75-10.625-28.594-5.134-7.772-11.837-13.905-20.037-18.326-8.271-4.42-17.827-6.916-28.808-7.559l-43.925-2.495c-1.284-.071-2.21.285-2.923,1.141-.642.856-.856,1.997-.714,3.352l17.47,124.571c.214,1.283.785,2.424,1.712,3.422s1.997,1.497,3.28,1.497l44.708,1.712c10.981.356,19.894-1.141,26.882-4.563,6.917-3.495,11.837-8.984,14.618-16.472,2.852-7.559,3.637-17.184,2.424-28.879ZM626.518,636.681c-1.07,3.565-3.137,6.132-6.061,7.701-2.924,1.64-6.774,2.282-11.623,2.139l-17.684-.784-11.052-78.508,16.899.855c7.344.428,13.192,2.71,17.47,6.846,4.278,4.207,7.131,10.553,8.628,19.181.713,3.565,1.284,6.774,1.782,9.698.428,2.923.856,5.776,1.213,8.699.356,2.924.642,6.203.998,9.84.713,5.918.499,10.696-.57,14.333Z" class="colord3dfee svgShape"/><path fill="#eeded3" d="M766.063,657.573c-.214-1.355-.713-2.496-1.569-3.352-.856-.927-1.926-1.426-3.066-1.426l-52.767-2.211-3.708-26.027,47.989,2.139c1.141.071,2.068-.356,2.638-1.212.642-.927.856-1.997.642-3.209l-2.282-16.186c-.214-1.354-.714-2.496-1.641-3.494-.855-.927-1.853-1.497-3.066-1.497l-47.989-2.424-3.565-25.242,51.482,2.781c1.213,0,2.069-.357,2.71-1.212.641-.784.855-1.854.641-3.28l-2.495-17.399c-.214-1.354-.714-2.496-1.569-3.422-.927-.856-1.925-1.355-3.066-1.426l-75.727-4.35c-1.212-.071-2.139.286-2.781,1.141-.642.856-.856,1.925-.642,3.351l17.327,122.218c.214,1.284.713,2.354,1.64,3.352.856.998,1.925,1.497,3.137,1.497l76.939,2.852c1.141.071,2.068-.356,2.638-1.284.642-.855.856-1.925.642-3.209l-2.496-17.469Z" class="colord3dfee svgShape"/><path fill="#eeded3" d="M864.109,660.425c-.214-1.284-.714-2.496-1.569-3.423s-1.854-1.426-2.995-1.497l-47.347-1.925-13.905-96.548c-.214-1.284-.713-2.425-1.569-3.352-.856-.927-1.854-1.355-3.066-1.427l-20.893-1.212c-1.14-.071-1.996.286-2.638,1.141-.642.784-.856,1.925-.642,3.28l17.256,120.293c.143,1.213.714,2.282,1.569,3.28.855.927,1.925,1.427,3.066,1.498l72.161,2.638c1.141.071,1.997-.357,2.567-1.284.571-.856.784-1.925.642-3.137l-2.638-18.325Z" class="colord3dfee svgShape"/><path fill="#eeded3" d="M891.418,562.308c-.142-1.284-.713-2.424-1.569-3.28-.927-.927-1.925-1.354-3.066-1.426l-20.536-1.212c-1.141-.071-1.997.285-2.638,1.141-.571.784-.785,1.854-.571,3.209l17.114,118.51c.214,1.213.713,2.282,1.569,3.28.855.927,1.854,1.427,2.995,1.427l20.536.784c1.141,0,1.996-.356,2.638-1.284.642-.856.856-1.925.714-3.137l-17.185-118.011Z" class="colord3dfee svgShape"/><path fill="#eeded3" d="M1001.015,565.303c-.784-.855-1.569-1.283-2.352-1.283l-18.469-1.07c-1.569-.142-2.71.357-3.422,1.355-.714,1.069-1.141,1.997-1.284,2.995l-8.913,81.787-33.514-84.212c-.286-.998-.999-1.996-2.068-3.137-1.069-1.14-2.424-1.782-3.993-1.854l-18.825-1.069c-.927-.071-1.64.285-2.21.998-.499.785-.713,1.64-.571,2.567.071.499.214,1.069.499,1.64l47.775,117.084c.57,1.497,1.497,2.781,2.638,3.922,1.141,1.069,2.567,1.712,4.278,1.712l22.889.856c1.783.071,3.137-.428,3.993-1.427.784-1.069,1.284-2.282,1.354-3.708l13.477-112.948c.071-.571.143-1.141.071-1.569-.142-.999-.642-1.854-1.355-2.639Z" class="colord3dfee svgShape"/><path fill="#eeded3" d="M1106.761,671.335c-.214-1.284-.713-2.354-1.497-3.209-.784-.856-1.712-1.284-2.781-1.355l-47.204-1.925-3.637-24.6,42.926,1.925c1.07.071,1.854-.357,2.424-1.213.499-.855.713-1.853.499-2.995l-2.282-15.331c-.143-1.284-.642-2.353-1.427-3.28-.784-.927-1.782-1.427-2.781-1.427l-42.926-2.139-3.565-23.888,46.135,2.424c1.07.071,1.854-.285,2.353-1.07.571-.784.784-1.853.571-3.137l-2.424-16.471c-.214-1.284-.713-2.353-1.498-3.208-.784-.856-1.711-1.355-2.78-1.355l-67.74-3.922c-1.07-.071-1.854.286-2.424,1.07-.571.784-.784,1.854-.571,3.137l16.971,115.658c.214,1.212.713,2.211,1.497,3.137.856.927,1.783,1.426,2.852,1.426l68.81,2.567c.998.071,1.854-.356,2.353-1.212.571-.856.713-1.854.571-3.066l-2.425-16.543Z" class="colord3dfee svgShape"/><path fill="#eeded3" d="M1207.73,690.373l-25.384-43.354c4.778-2.71,8.343-6.774,10.625-12.265,2.282-5.49,2.852-12.335,1.64-20.536-1.925-12.549-6.774-22.39-14.689-29.663-7.844-7.202-17.898-11.195-30.02-11.908l-38.434-2.21c-1.069-.071-1.854.285-2.424,1.069-.499.784-.713,1.854-.499,3.137l16.899,113.875c.143,1.141.642,2.211,1.427,3.067.784.927,1.711,1.426,2.781,1.426l18.254.713c1.069,0,1.854-.428,2.424-1.212.571-.856.784-1.854.571-3.066l-5.705-38.719,14.333.57,21.677,38.933c.499.999,1.283,1.997,2.282,3.137s2.353,1.712,4.136,1.783l18.468.712c.713,0,1.354-.356,1.854-1.069.428-.714.642-1.569.499-2.497-.072-.57-.285-1.212-.714-1.925ZM1166.944,623.204c-1.783,2.567-4.849,3.708-9.269,3.494l-16.187-.784-4.492-29.948,16.258.855c4.563.214,8.129,1.783,10.625,4.707,2.495,2.852,4.065,6.56,4.777,11.052.642,4.492.071,8.057-1.711,10.625Z" class="colord3dfee svgShape"/><path fill="#eeded3" d="M1282.601,584.699c0-.214,0-.571-.071-.927-.143-.856-.499-1.712-1.141-2.496s-1.427-1.141-2.211-1.212l-16.828-.927c-1.354-.071-2.353.285-2.995,1.07-.642.784-1.07,1.569-1.212,2.21l-12.907,43.069-26.24-45.279c-.356-.714-.999-1.498-1.925-2.424-.856-.927-1.996-1.355-3.423-1.498l-17.184-.927c-.856-.071-1.497.285-1.997.998-.499.714-.642,1.498-.499,2.424,0,.356.143.642.286.927.071.285.214.642.356.999l42.997,75.299,5.49,36.936c.214,1.141.713,2.139,1.497,3.066.856.856,1.712,1.355,2.567,1.355l17.755.642c.927.071,1.711-.356,2.282-1.212.571-.784.713-1.782.571-2.923l-5.563-36.794,20.322-71.448c.071-.285.071-.642.071-.927Z" class="colord3dfee svgShape"/></g></g><g class="color000000 svgShape"><path fill="#23201e" d="M2047.943,1267.292c-4.359,11.904-2.16,23.65,4.911,26.245,7.072,2.588,16.337-4.965,20.695-16.865,4.359-11.906,2.163-23.655-4.911-26.243-7.072-2.591-16.337,4.961-20.696,16.863Z" class="color1e2323 svgShape"/><path fill="#463626" d="M1959.311,1235.817c-3.995,19.138,1.064,36.384,11.3,38.521,10.235,2.136,21.771-11.646,25.766-30.783,3.995-19.138-1.064-36.384-11.299-38.521-10.235-2.136-21.771,11.646-25.767,30.783Z" class="color313333 svgShape"/><path fill="#463626" d="M2066.352,1275.062c-2.358,6.371-6.114,11.507-10.171,14.459-.667.504-81.554-28.396-81.554-28.396l-3.927-1.47,11.071-33.588,84.8,27.618c2.672,5.091,2.759,13.181-.218,21.376Z" class="color313333 svgShape"/><path fill="#edd097" d="M1959.849,1263.663s5.672,31.821,20.925,34.32c15.252,2.499,23.8-14.115,18.406-21.138-5.394-7.023-16.544-8.893-16.938-18.18-.393-9.286-21.373-12.017-22.393,4.998Z" class="colored979b svgShape"/><path fill="#f4b12f" d="M1462.836,970.877s12.871,0,34.046,18.36c18.367,15.926,161.73,204.27,171.17,204.598,9.439.328,180.807-10.064,257.306-7.972,30.865,24.017,29.913,107.421-13.124,114.319-79.249,12.703-220.993,56.981-285.702,51.055-41.07-3.762-104.512-137.979-137.216-193.118-25.897-43.663-42.453-157.251-26.48-187.243Z" class="colorf4ce2f svgShape"/><path fill="#dd9e24" d="M1912.213,1300.204c-79.228,12.694-222.597,66.146-285.678,50.996-76.74-18.431-152.77-255.441-143.951-259.483,15.944-7.358,109.968,181.32,166.689,209.215,40.919,20.134,207.699-32.018,297.438-62.663,1.058,28.704-9.736,57.974-34.499,61.936Z" class="colorddb924 svgShape"/><path fill="#fdc9a7" d="M1910.764,1206.508c21.024-25.556,119.004,3.539,131.524,21.819,12.52,18.279,32.238,71.536-.597,67.172,0,0-6.439,5.025-17.103-1.605-8.728.83-15.556-3.314-15.556-3.314l.812.463c-3.195-1.953-5.322-4.027-5.322-4.027l-1.613.762c-11.877,5.691-34.388-12.421-26.787-22.815l-56.452,23.657s-44.569-38.763-8.905-82.114Z" class="colorfda7a8 svgShape"/><path fill="#ddc087" d="M2024.886,1295.266c3.651,2.136,9.625,4.508,15.591,2.044,9.925-4.095,10.408-20.89,10.424-21.603.009-.465-.36-.852-.825-.862-.465-.011-.851.359-.862.824-.004.163-.475,16.406-9.381,20.082-5.696,2.353-11.457-.152-15.28-2.677-.388-.252-.912-.148-1.169.242-.255.388-.148.912.241,1.168.381.25.803.514,1.262.783Z" class="colordd878d svgShape"/><path fill="#ddc087" d="M2009.947,1292.114c4.093,2.394,9.723,4.426,15.113,2.199,9.928-4.101,10.412-20.891,10.428-21.602.01-.467-.36-.853-.824-.862-.466-.011-.851.359-.862.823-.004.164-.475,16.401-9.385,20.081-8.901,3.677-19.202-6.24-19.306-6.34-.328-.328-.867-.319-1.191.014-.326.333-.32.867.012,1.192.208.203,2.567,2.478,6.015,4.495Z" class="colordd878d svgShape"/><path fill="#ddc087" d="M2004.095,1287.744c.234.137.529.158.791.033,12.269-5.878,10.946-20.571,10.932-20.719-.048-.462-.46-.8-.923-.754s-.801.459-.756.922c.014.135,1.208,13.668-9.981,19.029-.42.202-.597.705-.396,1.126.076.157.194.281.334.362Z" class="colordd878d svgShape"/><path fill="#ddc087" d="M1993.506,1288.299c-.17.211-.438.336-.728.311-13.556-1.152-17.522-15.361-17.561-15.505-.119-.449.147-.911.596-1.032.449-.122.912.145,1.034.595.035.132,3.71,13.21,16.073,14.261.464.04.808.448.769.912-.014.174-.082.331-.184.457Z" class="colordd878d svgShape"/><path fill="#ddc087" d="M1975.403,1267.222c.018.011.036.02.056.03.419.205.924.032,1.128-.387l3.038-6.213c.205-.419.038-.922-.387-1.129-.418-.204-.924-.031-1.128.387l-3.038,6.214c-.195.399-.046.878.331,1.098Z" class="colordd878d svgShape"/><path fill="#463626" d="M2079.748,1077.537c-.582-.288-1.178-.539-1.813-.807-18.521-7.823-40.633,2.55-49.334,23.162-2.952,6.991-3.887,14.237-3.246,21.095l-4.637,1.019c-1.214.267-2.23,1.096-2.731,2.24l-33.218,75.978c-.89-.046-1.831.016-2.871.335l-7.012,10.386s5.239,6.787,13.274,7.205l4.409-12.243s-.383-.737-1.063-1.66l32.819-75.068,2.419-.531c1.635,5.581,4.43,10.667,8.283,14.786,3.147,3.392,6.969,6.111,11.374,7.971,18.555,7.836,40.614-2.515,49.332-23.161,8.423-19.939,1.26-42.149-15.983-50.706Z" class="color313333 svgShape"/><path fill="#b98c34" d="M1996.527,1249.744l-25.316,25.952-75.181-10.029,25.419-37.465,14.542-32.659c2.649,1.545,41.275,4.306,64.862,9.109,23.619,4.752-4.325,45.092-4.325,45.092Z" class="color97b934 svgShape"/><path fill="#e5c8b5" d="M2099.686,1237.29c-2.865.727-5.231,2.264-6.897,4.189-12.356-3.261-54.15-14.262-62.215-16.024-7.998-1.75-38.32-6.746-47.642-8.273-1.776-.291-3.569.122-5.052,1.139-5.053,3.478-3.484,11.312,2.515,12.574l12.821,2.697,89.265,16.327,9.748,3.124c2.607,3.059,7.393,4.476,12.277,3.237,6.41-1.627,10.53-7.196,9.199-12.439-1.331-5.244-7.608-8.176-14.017-6.549Z" class="colorb5c9e5 svgShape"/><path fill="#d3a44a" d="M1996.527,1249.744c-18.337,1.558-62.408-13.134-75.079-21.542l14.542-32.659c2.649,1.545,48.624,11.757,72.212,16.56,23.619,4.752-11.675,37.641-11.675,37.641Z" class="colord3c24a svgShape"/><g class="color000000 svgShape"><path fill="#fff" d="M1136.271,2484.948c-148.081,10.3-313.012-183.367-383.63-450.493-45.68-172.773-45.139-351.771,1.452-478.816,30.389-82.87,77.646-137.66,136.66-158.439,13.564-4.782,27.689-7.706,41.997-8.702,148.08-10.317,313.01,183.356,383.636,450.492,45.675,172.775,45.136,351.762-1.45,478.8-30.388,82.872-77.645,137.664-136.666,158.457-13.561,4.78-27.687,7.702-41.993,8.7h-.005Z" class="colorffffff svgShape"/><path fill="#e5c8b5" d="M1154.115,2459.196c-141.125,9.817-298.309-174.753-365.61-429.332-43.535-164.656-43.019-335.247,1.383-456.324,28.961-78.977,73.999-131.194,130.241-150.997,12.927-4.557,26.389-7.344,40.024-8.293,141.125-9.831,298.307,174.744,365.616,429.332,43.529,164.659,43.015,335.239-1.382,456.309-28.961,78.98-73.999,131.198-130.247,151.014-12.923,4.555-26.385,7.34-40.02,8.291h-.004Z" class="colorb5c9e5 svgShape" opacity=".85"/><path fill="#eeded3" d="M1297.715,2357.576c-13.692,23.593-29.392,43.394-46.83,59.082-4.191,3.805-8.624,7.438-13.04,10.737-.089.078-.171.158-.252.156-13.599,10.135-28.096,17.926-43.413,23.373-12.971,4.547-26.456,7.336-40.034,8.31-47.935,3.299-97.826-15.846-145.32-52.497-.242-.17-.477-.428-.801-.605l204.748-49.298s31.215-.054,84.942.742Z" class="colord3dfee svgShape"/><path fill="url(#a)" d="M1109.056,2184.948l-94.648-3.836c31.21.111,62.786,1.39,94.648,3.836Z"/><path fill="#e57200" d="M2680.303,2500.852l-1.819,47.988s-167.438-63.876-315.635,121.665c-17.612,22.039-37.617,38.536-59.215,50.601l-.076-.004c-61.659,34.41-136.412,32.236-204.981,16.505l-.076-.002c-99.531-22.798-186.133-74.047-201.37-83.375-1.46-.894-2.787-1.797-4.166-2.829-26.374-19.732-239.711-167.984-855.144-223.233-9.013-5.153-20.458-14.425-29.212-21.44l464.209,19.046,1207.483,75.078Z" class="color0067e5 svgShape"/><path fill="#f67b00" d="M2290.712,2437.081c-294.846-144.62-764.158-77.103-1013.965-80.295-49.837-.653-78.802-.518-78.802-.518l-190.073,49.858-2.01.497s.912.031,2.746.104c15.535.508,94.524,4,212.178,20.188,2.207.332,4.415.663,6.622.912.383.093.767.104,1.14.207,272.378,38.24,400.883-22.623,685.583,174.31,29.706,20.542,65.739,40.64,104.923,56.737,43.858,18.017,93.919,12.108,132.635-15.263l25.784-18.229s38.593,61.237,116.825,54.065c22.861-9.793,41.401-24.188,53.474-43.868,69.703-113.478,187.078-136.826,262.119-139.013-81.352-2.29-215.67-8.912-319.179-59.692Z" class="color007ff6 svgShape"/><path fill="#f67b00" d="M2660.381,2498.339c-12.457-.684-29.753-.984-50.49-1.565,20.675-.611,38.126.394,50.49,1.565Z" class="color007ff6 svgShape"/><path fill="#f67b00" d="M2680.299,2500.888s-7.306-1.358-19.908-2.549c8.622.466,14.923,1.119,18.467,2.166.301.01.456.104.684.186.456.104.756.197.756.197Z" class="color007ff6 svgShape"/><path fill="#d46a00" d="M2325.305,2707.047c-77.971,58.78-180.072,49.536-272.339,18.032,0,0,77.981-13.033,120.418-60.092,24.37,28.151,76.05,49.58,151.92,42.06Z" class="color004fd4 svgShape"/><path fill="#e57200" d="M1651.426,2402.344c286.549,122.225,498.293,236.459,668.265,131.498,97.555-60.243-343.589-149.126-668.265-131.498Z" class="color0067e5 svgShape" opacity=".5"/><g class="color000000 svgShape"><polygon fill="#e57200" points="1014.961 1286.064 830.421 1345.52 927.141 1754.962 1057.782 1726.997 1060.453 1697.239 1014.961 1286.064" class="color0067e5 svgShape"/><path fill="#d46a00" d="M1017.023,1530.112c-.236,0-.709,1.574-1.732,4.093-1.024,2.677-2.677,6.455-5.432,9.841-.237.236-.394.472-.63.708l-.079.079c-1.259,1.338-2.677,2.519-4.33,3.385-.945.63-1.968.945-3.07,1.259-.472.079-.945.158-1.338-.079-.394-.157-.63-.472-.945-1.023,0-.079-.079-.158-.079-.237-.551-1.024-1.023-2.834-1.416-4.802,1.338-2.361,2.44-5.117,3.227-8.581.237-1.259.394-2.519.551-3.936,0-.708.079-1.338.079-2.047.079-1.103,0-2.204-.079-3.228-.158-2.047-.63-3.936-1.338-5.353-.63-1.416-1.574-2.44-2.519-2.598-1.181-.157-2.283.945-3.07,2.834-.236.394-.315,1.024-.551,1.496-.157.472-.315,1.023-.394,1.416-.158.787-.315,1.653-.394,2.441-.394,3.385-.237,6.691.079,9.682.157,1.259.315,2.362.551,3.543-.237.315-.472.708-.788,1.024-1.889,2.361-4.172,4.409-6.612,6.062-2.362,1.574-4.96,2.834-7.637,3.543-1.417.315-2.755.551-4.172.629-1.339.158-2.756,0-4.015-.472-1.181-.472-2.283-1.259-3.149-2.44.079,0,.079-.079.158-.158,1.338-2.44,2.598-5.274,3.543-8.816.394-1.575.708-3.228.945-5.039.394-2.913.157-6.219-.709-8.66-.394-1.181-.945-2.204-1.575-2.991-.708-.63-1.416-1.024-2.046-1.024-.394.079-.709.079-1.103.394-.315.158-.709.394-1.024.709l-.472.472-.472.551c-.158.236-.394.472-.551.708-1.496,2.125-2.677,4.959-3.228,8.502-.629,3.543-.551,7.637.158,11.415.078.551.157,1.024.315,1.575-.394.472-.708,1.023-1.023,1.495-2.677,3.7-5.59,6.692-8.66,8.974-2.991,2.283-6.141,4.173-9.132,4.33-1.495,0-3.07-.394-4.015-1.339-.394-.472-.708-1.023-1.023-1.81-.158-.315-.237-.63-.315-1.024.472-.866.944-1.811,1.416-2.755.236-.551.472-1.024.787-1.811.237-.708.473-1.416.63-2.125.236-.788.394-1.575.551-2.52.079-.944.315-1.889.079-3.857,0-.866-.394-2.44-1.103-3.543-.315-.551-.709-1.023-1.024-1.181-.079-.079-.236-.157-.394-.236-.157-.079-.236-.079-.394-.079-.787-.315-1.653.079-2.283.787-.551.629-1.023,1.495-1.259,2.283-.315.866-.551,1.653-.708,2.519-.394,1.653-.63,3.227-.787,4.881-.079.787-.158,1.889-.158,2.913,0,.629,0,1.338.079,1.968-1.968,3.148-4.094,5.51-6.376,7.242-1.103.866-2.283,1.574-3.386,2.125-.551.236-1.023.315-1.416.236-.394-.079-.551-.236-.709-.394-.158-.237-.315-.787-.472-1.653-.079-.629-.158-1.496-.236-2.362.394-.787.787-1.574,1.102-2.519.551-1.259,1.024-2.834,1.417-4.566.158-.867.393-1.732.472-2.834.079-.551.158-1.102.158-1.732,0-.315,0-.708-.079-1.102,0-.472,0-.787-.158-1.417-.079-.237-.157-.472-.236-.787-.079-.237-.236-.551-.315-.788-.237-.472-.63-.944-.867-1.102-.708-.472-1.023-.394-1.417-.472-.865.079-1.652.945-2.203,2.047-.866,2.284-1.024,4.724-1.181,7.085-.079,2.362,0,4.802.158,7.243v.944c-.079.237-.237.472-.394.709-1.968,3.148-3.779,5.038-5.038,6.376-1.181,1.338-1.811,2.125-1.733,2.441.079.236.867.079,2.283-.788,1.259-.787,3.228-2.125,5.353-4.723.236,1.259.63,2.756,1.338,4.094.394.787.945,1.417,1.416,1.811.551.472,1.024.708,1.496.787.945.236,1.732.079,2.44-.158,1.339-.551,2.677-1.259,3.936-2.125,2.126-1.495,4.173-3.464,6.141-5.983.629,1.968,1.731,3.857,2.834,4.959,1.181,1.181,2.282,1.811,3.306,2.126.472.157,1.024.315,1.496.315.551.158,1.023.158,1.495.158,1.969,0,3.857-.63,5.59-1.417,1.653-.788,3.227-1.732,4.802-2.913l.078-.079c.079,0,.158-.079.237-.158,3.306-2.519,6.455-5.747,9.368-9.762.315-.394.629-.865.945-1.259.157.394.394.709.629,1.024,1.732,2.598,3.622,3.857,5.432,4.408l.079.079c1.811.63,3.464.709,5.039.63,1.574-.158,3.07-.472,4.566-.945,2.992-.865,5.747-2.282,8.345-4.172,1.259-.945,2.52-1.89,3.7-2.992,1.103-1.102,2.205-2.282,3.307-3.621.157.708.394,1.496.708,2.204.315,1.102.787,2.125,1.338,3.07.709,1.259,1.653,2.204,2.598,2.44.866.237,1.575.079,2.283-.079,1.181-.472,2.283-1.023,3.385-1.81,2.047-1.496,3.779-3.385,5.196-5.432.866-1.259,1.575-2.598,2.126-3.857,1.495-2.913,2.361-5.746,2.913-7.951.787-3.227.945-5.196.787-5.353ZM920.035,1551.052c0-1.968.237-3.7.551-4.644.079-.315.237-.394.315-.551v.708c-.078.788-.157,1.496-.315,2.284-.158.944-.315,1.731-.551,2.519v-.315ZM965.302,1538.771c0-1.023.078-2.047.236-2.991.315-1.968,1.024-3.778,1.968-5.038l.315-.472h.079c-.158,1.102-.315,2.204-.63,3.307-.472,1.81-1.181,3.543-1.968,5.195ZM996.87,1528.222c.079-.472.158-1.024.236-1.496q.078-.236.078-.315c.079-.078.079-.157.079-.236.158-.237.237-.394.472-.394.237.079.394.708.394,1.181v.236c0,.472-.078.945-.078,1.417-.158.866-.315,1.732-.472,2.598-.237,1.024-.551,1.968-.867,2.834-.157-2.047-.157-4.094.158-5.826Z" class="color004fd4 svgShape"/><polygon fill="#d46a00" points="1302.166 1368.411 1019.454 1359.486 1057.782 1726.997 1312.232 1681.255 1302.166 1368.411" class="color004fd4 svgShape"/><path fill="#f67b00" d="M841.374,1416.104c4.336-5.858,182.619-37.056,182.619-37.056l10.519-46.266-19.551-46.718-189.127,59.307,15.54,70.733Z" class="color007ff6 svgShape"/><polygon fill="#e57200" points="1023.993 1379.048 1311.482 1376.606 1311.003 1286.946 1014.961 1286.064 1023.993 1379.048" class="color0067e5 svgShape"/><path fill="#463626" d="M1562.589,1443.097s124.143-73.995,266.324-16.38c117.29,47.529-79.996,547.03-79.996,547.03l-104.13-13.038,7.779-334.908s-162.169,38.581-216.362,4.907c-54.193-33.674-53.216-162.797-53.216-162.797l165.184-61.519,14.417,36.706Z" class="color313333 svgShape"/><path fill="#23201e" d="M1748.955,1973.75l-104.195-13.014,7.842-334.943s-162.174,38.625-216.399,4.922c-54.225-33.703-53.224-162.841-53.224-162.841l165.177-61.482,14.432,36.706s24.276-14.516,63.735-25.611c-.167,20.856-3.17,62.568-21.44,90.681-25.026,38.792,81.838,67.656,81.838,67.656,0,0-9.51,322.429,0,346.371,9.511,23.943,53.558,21.44,53.558,21.44,0,0,9.093-517.639,0-537.243-.083-.167-.167-.417-.334-.585,28.029,2.086,58.062,8.426,88.929,20.94,117.293,47.467-79.919,547.004-79.919,547.004Z" class="color1e2323 svgShape" opacity=".5"/><path fill="#463626" d="M1585.453,1704.991c-88.068,11.252-397.217,50.705-490.373,62.605-151.828-140.714,69.611-136.679,193.273-168.028,107.388-18.629,222.375-33.055,276.403-31.919,92.468-11.183,25.717,133.706,20.697,137.342Z" class="color313333 svgShape"/><path fill="#e2b55d" d="M1610.64,1636.304c-27.196,1.919-77.333,2.837-92.182-15.517-13.848-17.101-10.595-38.625-6.924-51.055,21.022-1.668,39.209-2.418,53.224-2.085,48.636-5.923,53.224,31.451,45.882,68.657Z" class="colore2d55d svgShape" opacity=".1"/><path fill="#e2b55d" d="M1162.575,1623.207c-2.169,62.984-82.756,79.669-114.956,83.84-19.855-50.721,41.377-69.909,114.956-83.84Z" class="colore2d55d svgShape" opacity=".1"/><path fill="#23201e" d="M1268.587,1720.309l-35.416-122.284s25.956-14.407,40.508-17.218c14.554-2.811-27.537-10.93-51.281,2.452-23.747,13.384-22.573,21.833-22.573,21.833l42.692,123.856,26.071-8.64Z" class="color1e2323 svgShape"/><path fill="#2b2928" d="M1199.815,1433.711s187.641-34.073,240.205,14.948c52.563,49.021,17.009,139.066,8.736,148.665-8.273,9.599-188.951,37.451-229.8,21.9-54.208-20.639-48.827-111.917-19.14-185.512Z" class="color282b2b svgShape"/><path fill="#b98c34" d="M1185.145,1424.918c4.644-9.155,65.989-402.788,87.881-428.386,21.892-25.597,129.292-46.093,195.894-23.713,66.603,22.381,100.768,320.569,136.765,381.58,35.998,61.011-24.745,108.77-159.514,139.166-37.09,8.366-87.197-42.296-119.825-35.003-117.548,26.274-161.979,7.316-141.202-33.645Z" class="color97b934 svgShape"/><path fill="#927845" d="M1261.027,1262.072s-31.045,202.223-39.929,207.901c-8.884,5.678,10.917-166.731,39.929-207.901Z" class="color579245 svgShape"/><path fill="#a5823d" d="M1591.718,1433.884c-27.223,24.158-76.751,44.203-145.545,59.661-37.073,8.393-87.224-42.242-119.794-34.98-36.984,8.314-66.737,12.08-89.477,12.118.543-18.775,63.759-96.57,58.949-108.835-3.939-10.203-79.193,15.74-100.679,10.592,17.844-101.672,54.54-319.33,73.536-367.594,0,0-8.246,148.995,7.958,182.893,16.205,33.899,212.511-33.858,226.295-49.269,7.755-8.78,20.758-34.496,19.416-81.062,21.71,62.593,39.217,147.57,55.521,212.322-20.138,7.645-77.519,97.572-67.246,113.282,10.188,15.704,34.632,2.234,53.363,3.443,18.731,1.208-28.335,31.025-40.132,38.958-10.395,6.937,38.484,15.106,67.836,8.473Z" class="color77a53d svgShape" opacity=".5"/><path fill="#f4b12f" d="M1401.065,1070.546l2.994,19.355s-59.492,6.363-60.986,4.758c-1.493-1.604-3.198-18.48-3.198-18.48l61.19-5.633Z" class="colorf4ce2f svgShape"/><path fill="#927845" d="M1417.101,989.192c26.22,163.76,82.678,323.044,73.91,489.432,19.849-165.715-36.927-327.943-73.91-489.432h0Z" class="color579245 svgShape"/><path fill="#b98c34" d="M1960.414,2075.965c-312.992,264.27-567.028,129.394-954.551,103.343,88.508-462.064-172.004-385.625,499.805-504.652,28.084-9.038,90.118-8.905,76.691,38.974-110.118,392.678-16.064,440.345,378.055,362.334Z" class="color97b934 svgShape"/><path fill="#e2b55d" d="M946.889,1750.735s-8.747,12.982,5.772,28.198c14.518,15.217,207.984-33.693,207.984-33.693,0,0,109.475,56.209,128.387,44.019,18.912-12.19,17.255-21.662,17.255-21.662l-154.065-61.804-205.332,44.943Z" class="colore2d55d svgShape"/><g class="color000000 svgShape"><circle cx="1168.74" cy="2260.111" r="135.547" fill="#463626" class="color313333 svgShape" transform="rotate(-45 1168.74 2260.111)"/><ellipse cx="1137.612" cy="2258.375" fill="#23201e" class="color1e2323 svgShape" rx="133.635" ry="124.841" transform="rotate(-87.718 1137.6 2258.37)"/><path fill="#f7e6db" d="M1088.484,2256.418c-1.157,29.044,19.901,53.465,47.033,54.546,27.133,1.081,50.067-21.588,51.224-50.632,1.157-29.044-19.901-53.465-47.034-54.546-27.133-1.081-50.067,21.587-51.223,50.632Z" class="colorf2f4f7 svgShape"/></g><path fill="#e5c8b5" d="M1198.641,2184.482s-9.36,78.603-99.192,75.874c-1.722-.065-3.41-.136-5.057-.244-85.353-4.362-99.562-52.161-79.361-90.053,12.688-23.819,79.599-12.782,128.985-.791,30.705,7.427,54.624,15.215,54.624,15.215Z" class="colorb5c9e5 svgShape"/><path fill="#f7e6db" d="M1144.016,2169.267c-4.054,16.863-18.733,68.621-49.625,90.844-85.353-4.362-99.562-52.161-79.361-90.053,12.688-23.819,79.599-12.782,128.985-.791Z" class="colorf2f4f7 svgShape"/><path fill="#a5823d" d="M1267.891,2196.897c-81.733,1.759-260.758,17.53-344.55-19.841-66.855-41.172-7.608-297.298,117.979-341.776,382.022-106.708,430.74,155.661,226.571,361.617Z" class="color77a53d svgShape"/><polygon fill="#c79e4e" points="1686.731 2214.665 1294.291 2166.37 1185.675 2200.389 1596.606 2250.614 1686.731 2214.665" class="colorc7b54e svgShape"/><g class="color000000 svgShape"><path fill="#23201e" d="M1628.531,2059.338s-2.311,10.108-3.737,17.587c-1.427,7.479,127.469,45.33,165.272,55.289,71.757,18.904,77.24-6.957,77.24-6.957l.452-8.761-239.228-57.158Z" class="color1e2323 svgShape"/><path fill="#927845" d="M1867.759,2116.496c5.323-100.113-93.79-111.554-130.219-110.434-.629-13.548,11.448-24.093,11.377-32.315l-104.13-13.038c-3.181,25.89-14.314,65.377-16.256,98.63,120.362,44.407,238.4,72.73,239.228,57.158Z" class="color579245 svgShape"/><path fill="#ac8c4e" d="M1867.378,2097.031c-75.669,18.645-172.378-27.591-191.026-70.466-12.353-28.432-4.593-45.364,9.569-60.942l62.995,8.126c.092,8.246-11.997,18.76-11.351,32.315,33.912-1.025,121.945,6.794,129.814,90.967Z" class="color63ac4e svgShape"/><path fill="#b98c34" d="M1765.66,2022.733c-22.526,45.73,87.151,60.488,82.144,39.036-5.008-21.451-72.709-58.19-82.144-39.036Z" class="color97b934 svgShape"/><path fill="#e2b55d" d="M1800.087,2099.031l-32.101,73.486s-156.17-15.774-246.104-37.036c-37.937-6.817-62.351-34.128-69.349-72.184-18.374-139.127,99.731-231.845,52.468-388.423,286.124-97.541-128.127,452.03,295.086,424.157Z" class="colore2d55d svgShape"/></g><path fill="#d3a44a" d="M1185.681,2200.381c-2.648.088-5.301.141-8.024.196-.636.034-1.271.022-1.943.056-74.035,1.674-174.178.709-227.573-13.816-.42-.13-.831-.221-1.252-.352-9.546-2.643-17.543-5.774-23.548-9.411-62.817-37.998-14.185-270.677,97.664-331.979,6.447-3.525,13.207-6.8,20.315-9.795,138.975-16.216,213.454,35.128,255.766,121.049,40.159,81.575-78.365,210.444-111.404,244.053Z" class="colord3c24a svgShape"/><g class="color000000 svgShape"><path fill="#a5823d" d="M1159.926,2044.975c-52.419-14.429-106.524-20.149-162.198-16.928,52.404,14.503,106.536,20.078,162.198,16.928h0Z" class="color77a53d svgShape"/><path fill="#a5823d" d="M1151.221,2092.16c-52.419-14.429-106.523-20.15-162.198-16.928,52.404,14.503,106.536,20.077,162.198,16.928h0Z" class="color77a53d svgShape"/><path fill="#a5823d" d="M1142.516,2139.344c-52.419-14.429-106.523-20.149-162.197-16.928,52.403,14.503,106.536,20.078,162.197,16.928h0Z" class="color77a53d svgShape"/><path fill="#a5823d" d="M1228.293,2035.514c-57.686-110.583-193.114-133.311-287.26-24.495,12.23-12.183,25.088-21.887,38.124-29.649,90.742-53.404,189.408-29.691,249.136,54.144h0Z" class="color77a53d svgShape"/></g><path fill="#a5823d" d="M1093.018,1898.921c.323,6.768-3.194,12.433-7.854,12.657-4.663.224-8.706-5.08-9.029-11.851-.323-6.765,3.195-12.432,7.857-12.653,4.657-.222,8.702,5.082,9.026,11.847Z" class="color77a53d svgShape"/><path fill="#412102" d="M994.375,2210.243c1.45-.105,2.23-.218,2.23-.218,0,0-.839.377-2.23.218Z" class="color021c41 svgShape"/><path fill="#d3a44a" d="M1637.135,2208.569s-.145.116-.466.434c-3.126,2.615-16.365,9.805-36.165,21.814-7.223,4.385-307.56-34.488-326.817-40.181-28.892-8.597,45.864-23.386,45.864-23.386,0,0,.15.031.488.05l.601.086.942.142,315.553,41.041Z" class="colord3c24a svgShape"/><g class="color000000 svgShape"><path fill="#b98c34" d="M1952.734,1262.064l-51.99,25.311-3.561,1.72s-87.289-12.154-103.774-12.811c-16.482-.656-22.167-33.052-22.167-33.052l-69.667-17.781-65.411-16.725,197.526-16.02,119.043,69.359Z" class="color97b934 svgShape"/><path fill="#b98c34" d="M1960.163,1076.047s-105.338,11.451-120.85,51.687c-15.51,40.234-6.196,90.149,15.118,100.557,21.315,10.411,98.323,33.759,98.323,33.759l7.409-186.003Z" class="color97b934 svgShape"/><path fill="#b98c34" d="M2010.84,1171.215c-2.047,51.364-28.055,92.032-58.086,90.835-30.036-1.197-52.727-43.804-50.681-95.168,2.046-51.362,28.055-92.032,58.09-90.835,30.032,1.197,52.722,43.807,50.677,95.168Z" class="color97b934 svgShape"/><path fill="#e2b55d" d="M2014.84,1173.067c-1.804,45.267-24.723,81.109-51.192,80.054-26.471-1.054-46.469-38.605-44.666-83.873,1.804-45.267,24.726-81.109,51.196-80.054,26.47,1.055,46.465,38.607,44.663,83.873Z" class="colore2d55d svgShape"/><path fill="#f7e6db" d="M1938.498,1170.025c-1.454,36.497,14.668,66.773,36.01,67.624,21.342.85,39.823-28.048,41.277-64.545,1.453-36.497-14.67-66.774-36.012-67.624-21.343-.85-39.821,28.048-41.275,64.545Z" class="colorf2f4f7 svgShape" opacity=".5"/><path fill="#b98c34" d="M1874.148,1127.895l-241.746,44.615-1.729,43.392,246.185-14.688c9.03-.539,16.18-7.835,16.54-16.867l1.531-38.44c.449-11.278-9.682-20.059-20.781-18.012Z" class="color97b934 svgShape"/><path fill="#d3a44a" d="M1926.142,1085.747l-18.467,27.229s-68.461,15.574-64.291,13.251c4.169-2.319,28.312-26.569,82.758-40.48Z" class="colord3c24a svgShape"/><path fill="#d3a44a" d="M1757.414,1161.119s106.39-23.307,121.428-22.636c15.039.671,13.474,25.455-5.826,29.898-19.299,4.448-174.463,1.163-203.55,4.062-29.091,2.896,87.948-11.324,87.948-11.324Z" class="colord3c24a svgShape"/><path fill="#a5823d" d="M1934.849,1300.975l-37.666-11.881s-87.289-12.154-103.774-12.811c-16.482-.656-22.167-33.052-22.167-33.052l-69.667-17.781c4.272-3.358,10.631-4.2,10.631-4.2l117.593-8.218s12.471,37.513,49.081,38.709c45.61,1.489,58.032,33.128,55.97,49.233Z" class="color77a53d svgShape"/><path fill="#e5c8b5" d="M1924.369,1282.998l15.429,52.547-87.473-18.282-10.382-47.302s43.997-19.397,82.425,13.037Z" class="colorb5c9e5 svgShape"/><path fill="#fdc9a7" d="M1615.079,1214.605s10.182,8.35-.51,12.792c-10.691,4.442-27.673-5.775-23.581-12.427,4.092-6.651,24.091-.365,24.091-.365Z" class="colorfda7a8 svgShape"/><path fill="#463626" d="M1538.115,1167.93l98.03-6.346c4.238-11.448,10.519-18.821,17.318-18.55,11.443.456,19.868,22.087,18.823,48.329-.013.32-.026.647-.074.967-.328,7.332-1.393,14.183-2.983,20.286-4.031,15.413-11.453,25.79-19.552,25.467-6.529-.26-12.036-7.429-15.393-18.385l-106.116-5.688c-7.341-.292,2.607-46.371,9.948-46.078Z" class="color313333 svgShape"/><path fill="#463626" d="M1707.547,1015.652c-.892,22.396-17.894,39.848-38.023,39.046-4.778-.19-9.313-1.382-13.449-3.454-13.129-6.488-22.022-21.443-21.343-38.492.891-22.356,17.931-39.848,38.019-39.048.69.027,1.336.053,1.982.121,19.151,1.937,33.676,20.202,32.814,41.828Z" class="color313333 svgShape"/><path fill="#463626" d="M1746.035,1145.872l.948,12.497s8.319,2.068,14.882-2.594l-4.146-12.335s-7.491-3.645-11.685,2.433Z" class="color313333 svgShape"/><path fill="#463626" d="M1752.509,1152.693c.314.013.629-.01.947-.079,2.105-.433,3.46-2.494,3.023-4.595l-20.007-96.648c-.221-1.074-.884-2.002-1.825-2.557l-58.963-35.008c-1.848-1.103-4.225-.493-5.327,1.36-1.098,1.848-.494,4.234,1.359,5.327l57.488,34.132,19.658,94.967c.37,1.789,1.907,3.031,3.648,3.101Z" class="color313333 svgShape"/><path fill="#b98c34" d="M1888.939,2238.951c-101.626,49.254-370.507,2.109-370.507,2.109,0,0,114.677-24.027,191.573-122.416,101.76-130.203,5.897-596.13,5.897-596.13,0,0-38.084-207.775,15.923-225.625,25.898-8.539,61.022-7.544,90.622-4.175.081.004.203.008.285.05,32.058,3.63,152.12,25.489,170.837,44.974,66.994,69.74,108.556,277.755,119.403,311.854,59.73,187.832-122.411,540.109-224.033,589.359Z" class="color97b934 svgShape"/><path fill="#a5823d" d="M1825.108,1330.977c-14.637-4.087-64.651-9.585-81.025,5.534-16.373,15.119,38.352,298.257,37.933,294.152-.421-4.105-23.327-264.877-16.462-275.908,6.864-11.03,59.555-23.778,59.555-23.778Z" class="color77a53d svgShape"/><path fill="#a5823d" d="M1751.46,2261.402c100.564,1.419,186.478-28.07,230.103-49.178,54.422-26.285,105.248-131.737,131.674-252.907l-184.282-585.184c-12.293,67.261,38.679,303.086,38.679,303.086,0,0-64.938,296.452-70.933,329.65-5.329,29.486-119.37,215.063-145.241,254.532Z" class="color77a53d svgShape"/><path fill="#d3a44a" d="M2170.809,1900.241s-183.105-432.529-219.362-527.432c-8.092-14.146-24.14-7.192-22.656,5.377.832,7.042,79.626,279.292,73.452,302.304-6.174,23.012-54.813,185.028-49.993,339.548,105-85.598,218.558-119.798,218.558-119.798Z" class="colord3c24a svgShape"/><g class="color000000 svgShape"><path fill="#b98c34" d="M2078.556,1818.847c-24.782,0-49.282-24.077-59.577-58.547-5.648-18.908-6.378-38.611-2.047-55.479,4.841-18.859,15.82-32.709,30.127-37.996,4.239-1.568,8.684-2.363,13.209-2.363,24.782,0,49.282,24.069,59.577,58.539,12.525,41.964.19,83.023-28.077,93.484-4.247,1.568-8.691,2.362-13.213,2.362h0Z" class="color97b934 svgShape"/><path fill="#e2b55d" d="M2115.918,1728.264c-10.829-32.579-37.641-53.002-59.891-45.608-22.243,7.391-31.499,39.8-20.669,72.382,10.825,32.581,37.638,53.001,59.884,45.613,22.246-7.397,31.498-39.802,20.675-72.387Z" class="colore2d55d svgShape"/><path fill="#d3a44a" d="M2053.82,1719.615s33.117-16.135,47.519-10.936c14.406,5.204-39.512,9.712-47.519,10.936Z" class="colord3c24a svgShape"/><path fill="#d3a44a" d="M2066.687,1763.474s33.113-16.134,47.52-10.929c14.402,5.198-39.516,9.708-47.52,10.929Z" class="colord3c24a svgShape"/><path fill="#d3a44a" d="M2053.455,1742.859s40.825-19.892,58.587-13.48c17.759,6.412-48.718,11.968-58.587,13.48Z" class="colord3c24a svgShape"/></g><g class="color000000 svgShape"><circle cx="2208.221" cy="2256.635" r="289.519" fill="#463626" class="color313333 svgShape" transform="rotate(-45 2208.22 2256.635)"/><ellipse cx="2170.224" cy="2255.121" fill="#23201e" class="color1e2323 svgShape" rx="289.519" ry="270.467" transform="rotate(-87.718 2170.234 2255.121)"/><ellipse cx="2170.224" cy="2255.121" fill="#f7e6db" class="colorf2f4f7 svgShape" rx="114.025" ry="106.522" transform="rotate(-87.718 2170.22 2255.121)"/></g><path fill="#e5c8b5" d="M2164.37,2289.499h0c16.023-4.92,25.024-21.898,20.104-37.922l-65.087-211.962c-4.921-16.023-21.899-25.024-37.922-20.104h0c-16.023,4.919-25.024,21.898-20.104,37.921l65.087,211.963c4.921,16.023,21.899,25.024,37.922,20.104Z" class="colorb5c9e5 svgShape"/><path fill="#b98c34" d="M2521.436,2070.108l-63.435,10.087-52.537,8.332c-172.615-32.024-286.771-7.205-355.953,38.186-65.435,42.984-174.419,129.362-205.962,128.003-40.027-1.725,46.709-119.663,100.679-251.615,25.255-61.781,63.068-100.554,115.14-121.801,59.175-24.213,121.717-19.907,220.343-7.095,185.54,24.182,241.725,195.904,241.725,195.904Z" class="color97b934 svgShape"/><path fill="#e2b55d" d="M2521.436,2070.108l-115.972,18.419s-59.235-222.292-346.096-207.227c19.546-8.024,256.033-62.333,386.523,63.777,56.949,55.035,75.545,125.031,75.545,125.031Z" class="colore2d55d svgShape"/><path fill="#927845" d="M1843.209,2262.815c-4.096-.163-7.483-3.399-7.761-7.574-.286-4.468,3.099-8.326,7.566-8.614,26.2-1.697,85.416-44.189,137.659-81.676,22.88-16.412,44.488-31.914,64.389-44.99,57.55-37.801,166.795-75.312,360.52-39.673l114.575-18.191c4.402-.715,8.575,2.314,9.276,6.736.701,4.422-2.315,8.574-6.736,9.275l-115.951,18.407c-.909.148-1.847.129-2.745-.035-189.264-35.072-294.839.773-350.037,37.029-19.622,12.892-41.099,28.303-63.835,44.613-59.262,42.525-115.238,82.681-146.064,84.682-.289.018-.578.022-.857.011Z" class="color579245 svgShape"/><path fill="#a5823d" d="M2330.679,2029.488c-73.099-91.117-226.349-152.219-323.745-63.63-12.725,11.903-24.311,25.144-32.71,40.258,10.338-13.779,22.467-26.036,35.978-36.36,99.331-78.796,239.818-18.959,320.477,59.732h0Z" class="color77a53d svgShape"/></g></g><g class="color000000 svgShape"><path fill="#f4b12f" d="M1277.72,992.106c26.678-4.843-39.479,242.578-39.479,242.578,0,0,241.173-77.297,266.76-53.027,25.588,24.27,47.072,101.441-2.855,125.037-49.927,23.596-324.703,167.802-385.277,109.409-60.573-58.393,23.039-235.848,42.33-277.634,28.83-62.448,79.028-139.193,118.522-146.363Z" class="colorf4ce2f svgShape"/><path fill="#d3a44a" d="M1188.054,1259.828c-1.976,3.232,104.619-35.521,100.239-42.188-4.38-6.667-92.236,29.102-100.239,42.188Z" class="colord3c24a svgShape"/><path fill="#dd9e24" d="M1502.107,1306.7c-49.887,23.609-324.682,167.764-385.247,109.367-4.838-4.672-8.843-9.928-12.096-15.85,97.772-20.021,412.277-91.265,407.188-180.527-.584-11.011-1.084-21.69-1.502-31.951,22.858,29.115,38.041,97.021-8.342,118.961Z" class="colorddb924 svgShape"/><path fill="#fdc9a7" d="M1493.983,1181.658s103.594-41.396,125.473-31.067c21.88,10.328,53.644,57.193,20.287,71.182,0,0-3.299,8.287-17.006,7.917-7.77,5.594-16.491,5.453-16.491,5.453l1.02-.012c-4.089-.079-7.237-.861-7.237-.861l-1.1,1.608c-8.059,11.912-39.264,7.249-37.829-6.739l-46.939,40.542s-26.159-11.383-31.909-35.245c-9.385-38.948,11.731-52.777,11.731-52.777Z" class="colorfda7a8 svgShape"/><path fill="#ddc087" d="M1623.773,1230.817c4.619,0,11.558-1.057,15.823-6.669,7.098-9.332-1.706-25.43-2.084-26.111-.247-.444-.808-.606-1.252-.358-.444.247-.605.808-.358,1.252.087.156,8.597,15.727,2.228,24.102-4.072,5.358-10.884,6.173-15.879,5.901-.506-.024-.942.362-.969.872-.027.507.362.941.87.969.497.026,1.041.042,1.621.042Z" class="colordd878d svgShape"/><path fill="#ddc087" d="M1607.954,1236.082c5.178,0,11.605-1.188,15.459-6.258,7.097-9.34-1.702-25.432-2.081-26.112-.247-.446-.81-.606-1.252-.358-.445.247-.606.807-.36,1.252.087.156,8.594,15.722,2.225,24.102-6.363,8.374-21.541,4.704-21.694,4.668-.49-.128-.993.177-1.116.67-.124.493.176.993.669,1.116.307.077,3.785.921,8.148.921Z" class="colordd878d svgShape"/><path fill="#ddc087" d="M1600.028,1235.189c.296,0,.586-.142.764-.404,8.325-12.305-1.022-25.426-1.118-25.557-.3-.409-.875-.501-1.286-.202s-.503.874-.204,1.286c.088.12,8.674,12.218,1.082,23.441-.285.422-.174.993.247,1.279.158.107.338.158.514.158Z" class="colordd878d svgShape"/><path fill="#ddc087" d="M1561.668,1231.662c.022,0,.046-.001.069-.003.508-.038.888-.479.85-.987l-.561-7.532c-.038-.508-.472-.89-.987-.85-.507.038-.888.48-.85.987l.562,7.532c.035.483.439.852.917.852Z" class="colordd878d svgShape"/></g><g class="color000000 svgShape"><path fill="#463626" d="M1536.667,1186.633l22.96-1.535c.653-.36,1.328-.573,2.024-.573,5.274,0,9.55,10.891,9.55,24.324s-4.276,24.325-9.55,24.325c-.59,0-1.16-.182-1.72-.441l-23.265,2.55v-48.649Z" class="color313333 svgShape"/><path fill="#fdc9a7" d="M1576.117,1216.128s-17.91.516-14.232,17.594c0,0,7.488,3.664,12.913-3.3,5.424-6.963,1.319-14.294,1.319-14.294Z" class="colorfda7a8 svgShape"/><path fill="#ddc087" d="M1561.101,1230.059c.467,0,.867-.353.915-.828,1.322-12.888,13.88-11.785,14.414-11.73.498.041.956-.317,1.008-.823.052-.506-.316-.957-.822-1.01-.147-.014-14.922-1.359-16.433,13.376-.052.506.316.958.823,1.011.032.002.064.004.094.004Z" class="colordd878d svgShape"/><path fill="#23201e" d="M1525.164,1210.957c0,16.182,5.15,29.3,11.503,29.3s11.504-13.118,11.504-29.3-5.149-29.3-11.504-29.3-11.503,13.118-11.503,29.3Z" class="color1e2323 svgShape"/></g><g class="color000000 svgShape"><path fill="#a5823d" d="M1740.313,1203.282c0,9.381-10.859,16.985-24.255,16.985s-24.252-7.604-24.252-16.985,10.858-16.983,24.252-16.983,24.255,7.603,24.255,16.983Z" class="color77a53d svgShape"/><path fill="#eeded3" d="M1727.654,1195.522c-8.053-4.672-17.909-1.183-37.033,3.925-14.715,3.93-78.992,7.241-107.293,9.838-2.683-3.501-7.342-5.836-12.673-5.836-8.33,0-15.084,5.67-15.084,12.661s6.753,12.668,15.084,12.668c4.436,0,8.384-1.639,11.141-4.197,31.506-1.423,113.94-5.415,132.825-8.94,23.467-4.376,18.218-17.112,13.033-20.118Z" class="colord3dfee svgShape"/></g><g class="color000000 svgShape"><path fill="#d3a44a" d="M880.315,1786.791l-124.616,26.381c-.387-21.995.387-43.538,2.387-64.243l122.229,37.862Z" class="colord3c24a svgShape"/><polygon fill="#d3a44a" points="773.437 1961.783 875.026 1926.501 906.825 1865.224 761.956 1897.153 773.437 1961.783" class="colord3c24a svgShape"/><path fill="#b98c34" d="M914.501,1865.547l-150.803,44.376c-4.902-32.831-7.611-65.339-7.998-96.751l124.616-26.381,34.186,78.757Z" class="color97b934 svgShape"/><path fill="#e2b55d" d="M780.695,1861.617l-.866-3.857-5.117,1.181-1.574-6.928,7.085-1.654-.945-3.778-10.864,2.441,5.748,25.427,3.857-.866-2.441-10.785,5.117-1.181Z" class="colore2d55d svgShape"/><path fill="#e2b55d" d="M798.565,1862.797l-3.149-13.855c-.394-1.654-1.338-2.913-2.755-3.857-1.496-.945-2.991-1.181-4.723-.788-1.653.315-2.913,1.26-3.858,2.677-.944,1.496-1.181,3.07-.787,4.723l3.149,13.856c.315,1.732,1.259,2.991,2.677,3.935,1.495.945,3.07,1.181,4.723.788,1.653-.394,2.992-1.259,3.936-2.756.866-1.417,1.181-2.991.787-4.723ZM794.235,1865.395c-.315.551-.787.866-1.416,1.023-.551.079-1.103,0-1.654-.315s-.866-.787-1.023-1.416l-3.149-13.935c-.158-.551,0-1.102.315-1.652.315-.551.787-.867,1.417-1.024.551-.079,1.181,0,1.653.315.551.315.866.787,1.024,1.417l3.148,13.934c.158.551.079,1.103-.315,1.653Z" class="colore2d55d svgShape"/><path fill="#e2b55d" d="M813.995,1859.334l-3.149-13.855c-.394-1.654-1.26-2.991-2.755-3.936-1.417-.866-2.991-1.181-4.724-.787-1.653.394-2.913,1.259-3.857,2.755-.945,1.417-1.181,2.991-.787,4.723l3.149,13.855c.394,1.654,1.259,2.992,2.756,3.857,1.416.945,2.991,1.26,4.644.867,1.732-.394,2.991-1.338,3.936-2.756.944-1.496,1.181-3.07.787-4.723ZM809.743,1861.931c-.393.472-.865.787-1.416.945-.63.157-1.181.078-1.732-.315-.551-.315-.866-.787-1.024-1.338l-3.149-13.935c-.157-.629,0-1.181.315-1.731.315-.472.787-.788,1.417-.945.629-.158,1.181-.079,1.731.236.472.394.788.866.945,1.417l3.149,13.934c.158.63.079,1.181-.237,1.732Z" class="colore2d55d svgShape"/><path fill="#e2b55d" d="M829.346,1855.554l-2.991-13.304c-.394-1.653-1.339-2.991-2.756-3.857-1.417-.945-2.991-1.259-4.644-.866l-6.062,1.417,5.746,25.428,6.062-1.418c1.654-.394,2.913-1.259,3.857-2.755.866-1.417,1.181-2.991.787-4.645ZM825.331,1858.152c-.315.551-.787.866-1.338,1.024l-2.362.472-4.015-17.713,2.363-.472c.551-.158,1.101-.079,1.652.315.551.315.866.787.945,1.338l3.07,13.305c.079.629,0,1.181-.315,1.731Z" class="colore2d55d svgShape"/><path fill="#e2b55d" d="M845.406,1850.831c-.158-.629-.315-1.259-.551-1.731-.394-1.024-.945-1.733-1.417-2.362-.865-.787-1.732-1.259-2.598-1.417.393-.315.788-.787,1.102-1.259.63-1.259.787-2.756.394-4.409-.236-1.023-.551-1.889-.945-2.598-.787-1.338-1.811-2.204-2.991-2.677-1.338-.551-2.834-.629-4.33-.236l-5.747,1.259,5.747,25.428,7.085-1.575c1.024-.237,1.89-.787,2.756-1.574.708-.708,1.259-1.575,1.496-2.52.394-1.259.315-2.755,0-4.33ZM833.361,1838.393l1.575-.394c.787-.158,1.416-.079,2.047.315.63.472,1.024,1.181,1.259,2.283.158.63.237,1.181.158,1.653-.158,1.181-.787,1.968-1.968,2.283l-1.653.315-1.417-6.455ZM838.951,1855.791l-1.575.315-1.732-7.557,1.574-.394c.946-.237,1.733-.079,2.362.394.708.551,1.181,1.495,1.496,2.913.157.63.236,1.181.157,1.653-.236,1.495-.945,2.362-2.282,2.677Z" class="colore2d55d svgShape"/><path fill="#e2b55d" d="M861.072,1848.627l-3.149-13.856c-.315-1.653-1.259-2.991-2.756-3.857-1.416-.945-2.991-1.259-4.644-.866-1.732.394-2.991,1.338-3.936,2.756-.866,1.496-1.181,3.07-.787,4.723l3.149,13.855c.394,1.654,1.338,2.991,2.755,3.936,1.417.866,2.992,1.181,4.723.787,1.654-.394,2.913-1.259,3.858-2.755.945-1.417,1.181-2.992.787-4.723ZM856.821,1851.225c-.315.472-.788.867-1.417.945-.63.158-1.181.079-1.732-.236-.472-.315-.866-.788-.945-1.417l-3.149-13.934c-.157-.63-.078-1.181.237-1.653.394-.551.866-.866,1.416-1.024.63-.157,1.181-.078,1.732.315.473.315.867.787.946,1.338l3.148,13.935c.158.629.079,1.181-.236,1.731Z" class="colore2d55d svgShape"/><path fill="#e2b55d" d="M870.283,1839.18l2.125-13.776-4.173,1.024-1.102,8.423-4.566-7.164-4.251.945,7.873,11.494-2.126,13.934,4.094-.945,1.181-8.738,4.723,7.4,4.172-.945-7.951-11.651Z" class="colore2d55d svgShape"/></g></g><path fill="#463626" d="M1401.637,2096.906s-198.925-379.019-147.948-575.307c50.977-196.288,187.984-121.132,213.673-71.042,66.948,130.54,35.635,619.157,35.635,619.157l-101.36,27.192Z" class="color313333 svgShape"/><path fill="#23201e" d="M1503.025,2069.686l-101.359,27.196s-9.427-17.935-23.609-47.968c33.536,2.586,89.346-4.838,101.776-79.752,15.683-94.768-44.965-467.753-60.983-562.771,22.774,11.512,40.794,28.947,48.553,44.13,66.905,130.557,35.622,619.165,35.622,619.165Z" class="color1e2323 svgShape" opacity=".5"/><path fill="#927845" d="M1502.996,2069.714s17.362,105.902,11.14,111.398c-6.222,5.497-85.867,1.918-85.867,1.918l-26.633-86.123s84.821-28.98,101.36-27.192Z" class="color579245 svgShape"/><g class="color000000 svgShape"><path fill="#b28939" d="M1547.075,810.209c0,20.773-12.358,37.614-27.602,37.614s-27.601-16.841-27.601-37.614,12.357-37.614,27.601-37.614,27.602,16.841,27.602,37.614Z" class="color54b239 svgShape"/><path fill="#a5823d" d="M1543.873,811.074c0,25.006-16.825,45.278-37.58,45.278s-37.581-20.271-37.581-45.278,16.826-45.278,37.581-45.278,37.58,20.271,37.58,45.278Z" class="color77a53d svgShape"/><path fill="#b98c34" d="M1304.238,775.006c0,66.552,53.95,120.5,120.501,120.5s75.448-21.858,101.164-57.91c16.043-22.492,18.729-86.816,11.444-105.575-17.565-45.226-61.201-77.515-112.608-77.515-66.551,0-120.501,53.95-120.501,120.5Z" class="color97b934 svgShape"/><path fill="#a5823d" d="M1356.245,689.351c1.94,4.754,14.909,3.954,28.967-1.785,14.057-5.739,23.88-14.245,21.94-18.998s-14.91-3.954-28.967,1.785c-14.058,5.739-23.881,14.245-21.94,18.998Z" class="color77a53d svgShape" opacity=".25"/><path fill="#a5823d" d="M1304.235,774.993c0,66.565,53.905,120.469,120.469,120.469s75.529-21.837,101.163-57.914c16.035-22.469,18.777-86.817,11.499-105.489-15.084-38.819-49.264-68.04-91.142-75.53-9.283,18.039-15.19,29.01-55.592,43.567-22.997,8.333-45.887,9.704-64.137,5.063-14.031,19.726-22.259,43.778-22.259,69.833Z" class="color77a53d svgShape" opacity=".5"/><path fill="#463626" d="M1351.664,782.488s-25.271,48.518-12.278,61.392c12.992,12.874,14.881,14.067,14.881,14.067,0,0-25.317,44.374,7.379,46.743,32.694,2.37,85.146-17.947,98.497-64.769,13.351-46.824,44.822-88.785,25.749-101.182-19.074-12.398-134.228,43.749-134.228,43.749Z" class="color313333 svgShape"/><path fill="#fdc9a7" d="M1436.009,954.397s-12.943,16.912-36.627,16.912-41.253-16.252-41.253-16.252l9.032-129.377,56.565,38.885,12.283,89.832Z" class="colorfda7a8 svgShape"/><path fill="#f4b12f" d="M1434.478,946.589l14.679,21.653s-2.8,28.157-34.775,30.87-66.655-28.933-66.655-28.933l11.113-26.962s5.972,13.766,46.232,18.998c22.861,2.971,29.406-15.625,29.406-15.625Z" class="colorf4ce2f svgShape"/><path fill="#edd097" d="M1433.916,939.168c-70.698-6.358-56.775-78.837-56.775-78.837,0,0,34.142,22.445,50.418,32.235l6.357,46.602Z" class="colored979b svgShape"/><path fill="#fdc9a7" d="M1379.855,744.195c-11.076,18.542-20.454,33.793-19.823,42.822-6.279-.662-27.174.36-25.296,22.293,2.861,23.365,19.546,38.808,30.994,31.948,9.474,45.825,53.682,86.307,103.472,86.307,48.634,0,65.321-132.083,57.92-168.658-3.384-16.724-47.565-16.086-65.777-18.195-20.256-2.347-81.49,3.483-81.49,3.483Z" class="colorfda7a8 svgShape"/><path fill="#23201e" d="M1380.646,838.344s18.385,82.444,74.266,88.098c0,0-10.739,2.49-35.382-6.212-24.643-8.703-57.326-70.384-57.326-70.384l18.442-11.502Z" class="color1e2323 svgShape"/><path fill="#463626" d="M1363.024,754.952c-4.577,12.717-10.164,94.044-4.895,94.627,52.186,5.776,18.035-76.633,32.303-86.868,14.269-10.236,125.653,12.259,138.559,5.814,12.907-6.444,14.867-13.581-1.171-31.571-16.039-17.99-146.443-32.982-164.795,18Z" class="color313333 svgShape"/><path fill="#463626" d="M1352.388,804.322c-.849,2.091,8.033,10.111,6.729,17.936-1.304,7.822,5.634.938,3.494-7.616-2.138-8.553-9.439-12.245-10.223-10.321Z" class="color313333 svgShape"/><path fill="#463626" d="M1357.475,811.074c.103,3.144-4.672,9.881-2.753,10.309,1.917.428,7.144-4.497,5.681-7.189-1.463-2.693-2.928-3.12-2.928-3.12Z" class="color313333 svgShape"/><g class="color000000 svgShape"><path fill="#463626" d="M1442.977,803.231c0,7.44-4.537,13.471-10.132,13.471s-10.133-6.031-10.133-13.471,4.537-13.47,10.133-13.47,10.132,6.031,10.132,13.47Z" class="color313333 svgShape"/><path fill="#fff" d="M1445.837,795.482c0,2.766-2.241,5.007-5.006,5.007s-5.008-2.241-5.008-5.007,2.243-5.007,5.008-5.007,5.006,2.243,5.006,5.007Z" class="colorffffff svgShape"/></g><g class="color000000 svgShape"><path fill="#463626" d="M1511.664,803.231c0,7.44-4.537,13.471-10.133,13.471s-10.132-6.031-10.132-13.471,4.536-13.47,10.132-13.47,10.133,6.031,10.133,13.47Z" class="color313333 svgShape"/><path fill="#fff" d="M1514.524,795.482c0,2.766-2.242,5.007-5.007,5.007s-5.006-2.241-5.006-5.007,2.241-5.007,5.006-5.007,5.007,2.243,5.007,5.007Z" class="colorffffff svgShape"/></g><path fill="#463626" d="M1470.819,811.427c2.554,7.055-.546,20.307,1.228,23.309,1.773,3.001,8.731,2.182,6.821,6.957s-11.732,9.687-10.778,7.231c.955-2.455,6.403-6.685,5.521-6.958-.881-.273-7.294-.955-7.976-6.412-.682-5.457,3.956-27.519,5.184-24.127Z" class="color313333 svgShape"/><path fill="#fff" d="M1447.845,858.119c16.638,16.554,42.444,10.318,42.815,19.269.373,8.951-16.8,22.345-36.697,10.565-19.897-11.78-11.391-35.079-6.118-29.834Z" class="colorffffff svgShape"/><path fill="#463626" d="M1413.744,775.74c-1.385,2.073,0,9.703,1.306,9.99,1.304.285,24.877-1.785,27.714-1.142,2.836.642,8.216,2.337,8.607,1.169.391-1.169,1.272-3.524.294-4.808-.978-1.285-8.804-5.03-16.922-5.565-8.119-.535-20.378-.57-20.999.357Z" class="color313333 svgShape"/><path fill="#463626" d="M1517.367,775.74c1.056,2.073,0,9.703-.994,9.99-.994.285-18.967-1.785-21.129-1.142-2.163.642-6.265,2.337-6.563,1.169-.298-1.169-.969-3.524-.224-4.808.746-1.285,6.713-5.03,12.902-5.565,6.189-.535,15.536-.57,16.008.357Z" class="color313333 svgShape"/><g class="color000000 svgShape"><path fill="#a5823d" d="M1310.232,808.015c0,25.006,16.825,45.277,37.58,45.277s37.58-20.271,37.58-45.277-16.825-45.278-37.58-45.278-37.58,20.271-37.58,45.278Z" class="color77a53d svgShape"/><path fill="#b28939" d="M1312.382,807.15c0,20.774,12.357,37.614,27.601,37.614s27.602-16.84,27.602-37.614-12.358-37.614-27.602-37.614-27.601,16.84-27.601,37.614Z" class="color54b239 svgShape"/></g></g><g class="color000000 svgShape"><path fill="#23201e" d="M1388.775,2192.956c-1.034,2.612,2.966,17.111,5.692,17.326,2.725.215,107.902-1.93,115.844-10.786,7.943-8.856,3.826-18.384,3.826-18.384,0,0-119.688-2.494-125.362,11.844Z" class="color1e2323 svgShape"/><path fill="#ac8c4e" d="M1388.775,2192.956s99.283.757,119.139-6.347c19.856-7.104-8.81-76.183-71.74-68.101-65.975,8.474-51.251,74.431-47.399,74.449Z" class="color63ac4e svgShape"/><path fill="#b98c34" d="M1394.826,2164.746c-6.398-48.577,74.763-44.056,66.681-23.958-8.082,20.097-64.001,44.304-66.681,23.958Z" class="color97b934 svgShape"/></g></g><g class="color000000 svgShape"><polygon fill="#d3a44a" points="856.203 1499.105 702.947 1537.318 610.563 1352.13 737.251 1260.653 856.203 1499.105" class="colord3c24a svgShape"/><polygon fill="#b6985e" points="677.318 1417.521 761.034 1380.433 781.152 1426.997 698.085 1457.915 677.318 1417.521" class="colorbcad53 svgShape"/><polygon fill="#e2b55d" points="737.251 1260.653 890.392 1204.677 994.685 1413.744 856.203 1499.105 737.251 1260.653" class="colore2d55d svgShape"/><polygon fill="#b6985e" points="631.105 1393.308 765.242 1323.351 911.429 1253.816 773.747 1333.813 631.105 1393.308" class="colorbcad53 svgShape"/><path fill="#b6985e" d="M927.762,1323.702c-.236,0-.236,1.653-.551,4.409-.394,2.834-1.024,6.849-2.834,10.786-.866,1.968-2.125,3.857-3.7,5.353-.708.787-1.653,1.417-2.598,1.968-.472.236-.945.394-1.338.315-.394-.079-.787-.315-1.181-.708-.866-.867-1.811-2.599-2.755-4.487.708-2.677,1.102-5.59.865-9.054-.079-1.338-.157-2.598-.472-4.014-.079-.63-.237-1.259-.394-1.968-.237-1.103-.551-2.125-.866-3.07-.709-1.89-1.654-3.621-2.677-4.802-1.024-1.259-2.126-1.968-3.071-1.889-1.259.157-2.046,1.495-2.282,3.543-.079.394-.079,1.023-.079,1.495-.079.551-.079,1.103-.079,1.496.079.866.158,1.653.237,2.519.472,3.306,1.495,6.455,2.598,9.29.472,1.102.945,2.125,1.338,3.227-.079.394-.237.788-.394,1.181-1.26,2.834-2.913,5.353-4.803,7.479-1.968,2.204-4.093,4.015-6.533,5.432-1.181.629-2.519,1.259-3.779,1.732-1.338.394-2.676.629-4.014.472-1.26-.079-2.519-.63-3.622-1.496,0-.079,0-.158.079-.236.629-2.677,1.181-5.668,1.181-9.368,0-1.653-.157-3.307-.394-5.117-.394-2.913-1.496-5.984-2.913-8.108-.709-1.103-1.496-1.89-2.283-2.441-.867-.472-1.653-.708-2.283-.472-.315.079-.629.237-.945.63-.236.236-.551.551-.787.944-.079.237-.237.394-.315.63l-.315.551c-.157.315-.236.551-.394.866-.865,2.44-1.259,5.51-.944,9.053.315,3.543,1.495,7.479,3.07,10.943.236.472.551.945.787,1.417-.237.551-.472,1.102-.63,1.732-1.653,4.172-3.7,7.794-5.983,10.864-2.362,2.913-4.881,5.589-7.715,6.455-1.416.394-3.07.394-4.172-.237-.551-.394-1.023-.787-1.574-1.495-.158-.315-.315-.551-.472-.866.236-1.024.472-1.968.629-3.07.079-.551.237-1.102.315-1.89.079-.787.079-1.495.079-2.282s-.079-1.575-.158-2.52c-.158-.944-.237-1.968-.866-3.778-.315-.787-1.024-2.283-1.968-3.149-.472-.394-.944-.708-1.259-.787-.157-.079-.394-.158-.551-.158h-.315c-.866-.078-1.574.551-1.968,1.338-.472.788-.63,1.733-.708,2.598-.079.866-.079,1.732-.079,2.52.079,1.731.315,3.306.551,4.959.157.708.315,1.811.551,2.834.158.629.394,1.259.629,1.889-1.102,3.464-2.519,6.377-4.251,8.581-.865,1.102-1.811,2.125-2.756,2.913-.472.315-.865.551-1.259.63-.472,0-.63-.079-.866-.315-.158-.079-.472-.63-.788-1.417-.315-.551-.629-1.416-.945-2.204.237-.867.394-1.732.551-2.677.158-1.417.237-2.991.158-4.802-.079-.867-.158-1.732-.315-2.834-.078-.551-.157-1.102-.315-1.732-.079-.315-.158-.63-.315-1.023-.158-.394-.237-.787-.551-1.259-.079-.237-.236-.472-.393-.709-.157-.236-.315-.472-.551-.708-.315-.394-.788-.709-1.103-.866-.787-.315-1.024-.079-1.496-.079-.787.315-1.338,1.338-1.495,2.519-.315,2.44.158,4.802.63,7.085.551,2.361,1.18,4.644,1.968,7.006.079.315.157.629.315.945-.079.236-.158.472-.236.708-1.103,3.543-2.362,5.825-3.228,7.479-.787,1.574-1.181,2.519-1.024,2.756.079.236.788-.158,1.968-1.339,1.023-1.102,2.519-2.834,3.936-5.904.551,1.181,1.338,2.519,2.361,3.622.551.63,1.26,1.102,1.89,1.417.551.236,1.102.315,1.574.315.946,0,1.654-.394,2.283-.787,1.181-.866,2.283-1.89,3.307-3.07,1.653-1.968,3.07-4.409,4.33-7.322,1.181,1.733,2.677,3.228,4.014,4.094,1.417.787,2.677,1.103,3.779,1.181,1.023.079,2.047-.078,2.991-.315,1.89-.551,3.543-1.574,4.959-2.834,1.496-1.26,2.835-2.677,4.094-4.33,2.599-3.228,4.802-7.164,6.613-11.73.158-.472.315-1.024.472-1.495.315.315.629.629.866.866,2.362,1.968,4.644,2.756,6.534,2.913,1.89.079,3.464-.236,4.959-.787,1.496-.551,2.913-1.181,4.173-2.047,2.677-1.574,4.96-3.622,7.006-6.141,1.968-2.362,3.621-4.96,4.96-8.187.945,1.653,2.047,3.227,3.385,4.566,1.024,1.024,2.204,1.653,3.07,1.653.945.079,1.653-.315,2.204-.629,1.023-.787,1.968-1.575,2.755-2.598,1.654-1.968,2.834-4.252,3.622-6.613,1.653-4.645,1.968-9.368,1.89-12.675-.079-3.228-.393-5.196-.63-5.275ZM839.749,1368.732c-.472-1.89-.708-3.7-.708-4.645.079-.315.158-.472.236-.629.079.236.158.472.158.708.158.709.237,1.496.315,2.204.079.945.079,1.811.079,2.677,0-.157-.079-.236-.079-.315ZM880.213,1345.272c-.315-1.024-.472-2.047-.551-2.991-.157-1.968,0-3.857.551-5.275l.237-.551h.079c.157,1.023.236,2.204.236,3.306,0,1.89-.236,3.7-.551,5.511ZM909.262,1332.676c-.708-1.968-1.181-3.857-1.417-5.667-.079-.472-.079-1.024-.079-1.417v-.63c.079-.236.158-.472.315-.472.315-.079.551.551.708,1.024v.236c.158.394.236.867.315,1.339.158.865.158,1.731.236,2.597.079,1.024,0,2.047-.078,2.991Z" class="colorbcad53 svgShape"/><path fill="#fff" d="M796.736,1622.483c-4.799-14.627,556.934-203.789,558.781-165.681,2.128,43.883-555.944,174.328-558.781,165.681Z" class="colorffffff svgShape" opacity=".2"/><path fill="#fff" d="M811.837,2001.247c-3.017-8.645,418.063-95.896,418.063-73.792,0,25.453-416.279,78.903-418.063,73.792Z" class="colorffffff svgShape" opacity=".5"/><path fill="#fff" d="M852.953,2158.575s189.768-4.805,190.075,24.222c.154,14.553-184.413-13.146-190.075-24.222Z" class="colorffffff svgShape" opacity=".35"/><path fill="#fff" d="M1056.727,1811.98c-34.638,29.559,668.346-92.36,669.931-113.144,1.584-20.784-600.229,53.663-669.931,113.144Z" class="colorffffff svgShape" opacity=".2"/><path fill="#fff" d="M1186.163,2063.448s445.53-50.249,454.08-34.582c8.551,15.667-400.532,45.989-454.08,34.582Z" class="colorffffff svgShape" opacity=".5"/><path fill="#fff" d="M1006.851,1636.931c-1.262,17.031,138.169-25.551,138.534-30.607.365-5.056-137.282,13.713-138.534,30.607Z" class="colorffffff svgShape" opacity=".5"/><path fill="#fff" d="M1199.561,2130.249c76.886,12.814,115.64,18.976,115.383,5.855-.258-13.122-122.89-7.106-115.383-5.855Z" class="colorffffff svgShape" opacity=".5"/></g><g class="color000000 svgShape"><path fill="#f7e6db" d="M1663.898,878.516c-2.835-.538-5.091-2.794-5.63-5.629-.873-4.613-2.352-7.658-4.041-7.658s-3.169,3.043-4.043,7.658c-.538,2.834-2.795,5.092-5.629,5.629-4.613.875-7.658,2.354-7.658,4.043s3.043,3.168,7.658,4.043c2.834.538,5.091,2.794,5.629,5.63.875,4.613,2.352,7.657,4.043,7.657s3.168-3.044,4.041-7.657c.539-2.835,2.795-5.092,5.63-5.63,4.613-.875,7.657-2.353,7.657-4.043s-3.043-3.167-7.657-4.043Z" class="colorf2f4f7 svgShape"/><path fill="#eeded3" d="M1587.269,632.572c-2.88-.546-5.172-2.838-5.719-5.719-.888-4.686-2.39-7.778-4.106-7.778s-3.219,3.092-4.107,7.778c-.547,2.88-2.839,5.173-5.719,5.719-4.686.889-7.778,2.391-7.778,4.107s3.092,3.218,7.778,4.107c2.88.546,5.171,2.838,5.719,5.719.888,4.686,2.39,7.779,4.107,7.779s3.219-3.093,4.106-7.779c.547-2.88,2.839-5.173,5.719-5.719,4.686-.889,7.778-2.39,7.778-4.107s-3.092-3.218-7.778-4.107Z" class="colord3dfee svgShape"/><path fill="#eeded3" d="M1780.203,842.88c-5.479-1.065-9.504,9.195-15.058,7.946-5.492-1.255-1.361-11.383-6.785-12.647-5.354-1.266-9.591,8.728-15.014,7.277-5.35-1.45-1.01-11.309-6.294-12.763-5.229-1.459-9.672,8.262-14.967,6.619-5.229-1.642-.688-11.224-5.85-12.867-5.096-1.64-9.736,7.801-14.893,5.978-5.106-1.826-.369-11.126-5.41-12.949-4.964-1.813-9.794,7.345-14.815,5.346-4.962-1.992-.04-11.005-4.938-12.993,20.925-38.398,38.177-79.739,51.364-123.104,4.294,1.202,7.253-9.044,11.467-7.985,4.273,1.059,1.428,11.411,5.767,12.466,4.394,1.049,7.127-9.408,11.436-8.499,4.361.901,1.745,11.459,6.172,12.352,4.496.889,6.995-9.769,11.402-9.019,4.463.741,2.083,11.495,6.613,12.225,4.585.72,6.847-10.132,11.342-9.55,4.565.571,2.425,11.518,7.056,12.075,4.678.543,6.695-10.496,11.279-10.09,4.645.393,2.752,11.523,7.463,11.899-8.161,47.617-20.707,94.026-37.339,138.28Z" class="colord3dfee svgShape"/><path fill="#f7e6db" d="M1746.882,773.489c-.426-.106-.721-.334-.891-.68-.169-.35-.174-.74-.017-1.179.493-1.378.981-2.758,1.466-4.141-2.781-1.08-4.926-2.451-6.451-4.085-1.524-1.639-2.473-3.4-2.865-5.287-.394-1.887-.306-3.732.25-5.542.112-.315.333-.575.663-.769.333-.195.667-.25,1-.164,1.989.519,3.985,1.026,5.989,1.523.487.121.823.326,1.011.611.189.285.343.615.459.994.032.746.232,1.513.599,2.299.368.786.989,1.516,1.869,2.185.882.668,2.081,1.184,3.607,1.537,2.476.575,4.483.565,6.004-.018,1.521-.583,2.516-1.619,2.978-3.093.334-1.064.266-1.996-.195-2.792-.463-.796-1.324-1.613-2.578-2.45-1.252-.842-2.973-1.827-5.143-2.976-2.608-1.291-4.702-2.693-6.297-4.188-1.595-1.495-2.606-3.181-3.047-5.054-.445-1.874-.267-4.017.502-6.438,1.014-3.19,2.876-5.654,5.593-7.427,2.718-1.767,5.946-2.535,9.735-2.313.399-1.424.794-2.85,1.185-4.277.125-.454.352-.802.684-1.039.333-.241.696-.318,1.097-.238,1.286.257,2.575.509,3.868.756.362.069.633.27.812.614.179.338.208.739.087,1.197-.39,1.478-.785,2.955-1.184,4.429,2.411.946,4.312,2.204,5.7,3.794,1.387,1.588,2.329,3.268,2.82,5.04.487,1.777.551,3.42.179,4.932-.089.332-.286.618-.586.847-.3.23-.621.317-.962.255-2.132-.386-4.255-.785-6.371-1.198-.336-.066-.631-.215-.883-.44-.253-.22-.429-.565-.537-1.023.12-1.114-.265-2.182-1.151-3.213-.885-1.025-2.178-1.711-3.875-2.063-1.805-.375-3.344-.316-4.628.192-1.285.503-2.153,1.511-2.612,3.021-.297.976-.274,1.865.073,2.662.347.802,1.074,1.594,2.18,2.387,1.108.788,2.648,1.726,4.636,2.802,3.073,1.431,5.513,2.856,7.296,4.3,1.782,1.443,2.933,3.07,3.428,4.896.499,1.82.386,3.98-.356,6.46-.719,2.399-1.93,4.408-3.626,6.015-1.696,1.601-3.747,2.742-6.144,3.404-2.397.668-5.035.864-7.898.593-.474,1.394-.952,2.786-1.435,4.175-.153.443-.413.77-.785.989-.37.215-.749.278-1.134.186-1.376-.331-2.748-.667-4.117-1.008Z" class="colorf2f4f7 svgShape"/><path fill="#f7e6db" d="M1773.209,815.347c-7.703-1.557-15.316-3.271-22.837-5.135-1.466-.363-3.106.494-3.675,1.916-.57,1.424.155,2.884,1.628,3.258,7.56,1.913,15.213,3.675,22.958,5.279,1.51.314,3.17-.631,3.698-2.105.527-1.474-.272-2.91-1.772-3.213Z" class="colorf2f4f7 svgShape"/><path fill="#f7e6db" d="M1706.303,786.88c22.177,7.553,45.307,13.786,69.327,18.471,2.042.4,4.263-.945,4.942-2.992.678-2.048-.431-4.008-2.454-4.389-23.838-4.489-46.797-10.516-68.811-17.854-1.869-.622-4.047.375-4.885,2.232-.837,1.858-.004,3.889,1.881,4.532Z" class="colorf2f4f7 svgShape"/><path fill="#f7e6db" d="M1699.016,800.199c12.579,4.499,25.462,8.579,38.639,12.201,1.457.401,3.113-.424,3.688-1.84.577-1.416-.14-2.876-1.586-3.266-13.109-3.536-25.925-7.527-38.44-11.936-1.383-.486-3.013.196-3.653,1.527-.64,1.331-.04,2.816,1.351,3.313Z" class="colorf2f4f7 svgShape"/><g class="color000000 svgShape"><path fill="#f7e6db" d="M978.756,1695.286c-3.912,3.705,5.403,7.696,1.413,11.437-4.134,3.822-13.405-.418-17.556,3.109-4.289,3.596,4.932,8.087.562,11.716-4.506,3.693-13.674-1.051-18.186,2.34-4.669,3.462,4.439,8.459-.312,11.948-4.896,3.55-13.944-1.699-18.839,1.542-5.042,3.296,3.939,8.799-1.183,12.118-5.288,3.38-14.2-2.38-19.477.683-5.415,3.103,3.424,9.119-2.074,12.24-5.656,3.169-14.417-3.105-20.051-.261-36.508-27.888-63.441-62.849-79.169-100.944,4.928-1.558,1.371-10.453,6.21-12.019,4.669-1.567,8.371,7.166,13.136,5.381,4.588-1.778.748-10.35,5.247-12.13,4.321-1.769,8.299,6.642,12.709,4.664,4.249-1.969.139-10.22,4.299-12.186,3.989-1.947,8.231,6.146,12.303,3.996,3.901-2.124-.467-10.061,3.347-12.178,3.656-2.095,8.15,5.683,11.882,3.391,3.556-2.254-1.058-9.876,2.414-12.118,3.31-2.207,8.045,5.26,11.426,2.865,21.23,31.167,52.618,57.216,91.896,74.407Z" class="colorf2f4f7 svgShape"/><path fill="#eeded3" d="M888.818,1698.207c-.401.235-.824.331-1.271.294-.45-.042-.822-.207-1.122-.503-.945-.929-1.881-1.864-2.806-2.805-2.994,1.33-5.84,2.104-8.482,2.329-2.646.221-4.991-.011-7.012-.687-2.024-.676-3.628-1.664-4.81-2.948-.195-.233-.253-.509-.168-.821.086-.313.297-.555.632-.725,2.003-1.01,3.982-2.031,5.938-3.065.475-.251.909-.364,1.299-.342.392.021.796.087,1.215.2.676.349,1.502.597,2.469.743.966.146,2.075.098,3.315-.149,1.24-.249,2.574-.78,3.991-1.596,2.301-1.325,3.718-2.621,4.296-3.864.576-1.243.39-2.356-.531-3.341-.666-.713-1.496-1.111-2.496-1.201-1.001-.088-2.306.061-3.923.444-1.62.379-3.71.979-6.3,1.77-3.038.996-5.823,1.597-8.311,1.818-2.488.222-4.699-.041-6.598-.783-1.902-.741-3.52-2.036-4.833-3.874-1.731-2.422-2.107-4.99-1.231-7.662.879-2.672,2.953-5.063,6.122-7.208-.715-1.055-1.419-2.114-2.113-3.178-.221-.339-.283-.678-.183-1.014.098-.34.335-.599.71-.789,1.204-.612,2.399-1.229,3.583-1.85.332-.174.683-.218,1.06-.126.374.088.673.302.898.635.726,1.077,1.462,2.149,2.21,3.215,2.539-.912,4.873-1.351,7.055-1.318,2.179.033,4.086.367,5.743,1.005,1.657.643,2.92,1.454,3.787,2.456.184.224.259.491.216.79-.042.3-.208.541-.501.717-1.832,1.104-3.689,2.197-5.573,3.279-.3.172-.633.276-.993.311-.359.04-.754-.033-1.185-.209-.762-.661-1.858-.992-3.306-1.007-1.444-.012-2.945.4-4.523,1.241-1.677.894-2.838,1.864-3.456,2.931-.623,1.064-.53,2.156.295,3.264.533.716,1.257,1.186,2.159,1.4.908.217,2.104.189,3.585-.078,1.477-.271,3.4-.735,5.746-1.417,3.441-1.172,6.353-1.969,8.79-2.363,2.437-.394,4.548-.32,6.371.24,1.822.555,3.5,1.634,5.053,3.234,1.501,1.546,2.381,3.205,2.606,4.996.221,1.788-.175,3.599-1.236,5.436-1.057,1.838-2.7,3.638-4.955,5.384.935.921,1.88,1.836,2.834,2.745.304.29.428.599.376.936-.056.334-.259.611-.613.825-1.265.766-2.54,1.527-3.826,2.284Z" class="colord3dfee svgShape"/><path fill="#eeded3" d="M946.392,1694.859c-5.891,4.837-12.077,9.589-18.562,14.232-1.263.903-1.354,2.285-.172,3.082,1.181.797,3.191.689,4.461-.235,6.511-4.731,12.724-9.571,18.639-14.495,1.154-.962,1.086-2.305-.122-3.009-1.209-.703-3.096-.517-4.244.425Z" class="colord3dfee svgShape"/><path fill="#eeded3" d="M873.549,1731.366c24.35-12.225,45.78-26.095,64.28-40.825,1.574-1.254,1.536-3.113-.029-4.166-1.567-1.052-4.057-.928-5.619.29-18.381,14.368-39.673,27.872-63.861,39.723-2.053,1.004-2.601,2.948-1.163,4.342,1.435,1.394,4.324,1.677,6.392.636Z" class="colord3dfee svgShape"/><path fill="#eeded3" d="M883.736,1741.703c13.845-7.255,26.765-15.026,38.753-23.173,1.325-.902,1.423-2.287.246-3.098-1.177-.812-3.175-.76-4.494.122-11.937,7.992-24.802,15.605-38.587,22.701-1.522.783-1.871,2.198-.747,3.161,1.123.963,3.299,1.09,4.829.287Z" class="colord3dfee svgShape"/></g><g class="color000000 svgShape"><path fill="#eeded3" d="M1273.728,877.386c-4.161,2.717,2.271,8.94-1.967,11.679-4.311,2.763-10.674-3.666-14.97-1.151-4.362,2.531,1.928,9.163-2.512,11.713-4.505,2.562-10.718-4.271-15.199-1.957-4.563,2.335,1.569,9.368-3.074,11.715-4.715,2.359-10.764-4.871-15.447-2.759-4.755,2.12,1.206,9.546-3.629,11.674-4.924,2.141-10.794-5.478-15.677-3.586-4.947,1.894.829,9.705-4.201,11.602-5.109,1.902-10.788-6.099-15.85-4.444-23.657-34.836-42.494-73.264-55.711-113.682,4.323-.694,1.258-10.134,5.495-10.842,4.153-.717,7.359,8.597,11.607,7.701,4.158-.902.816-10.088,4.889-10.998,3.982-.913,7.458,8.144,11.528,7.052,3.995-1.095.388-10.017,4.298-11.115,3.825-1.096,7.561,7.694,11.47,6.418,3.823-1.269-.037-9.921,3.703-11.189,3.667-1.264,7.651,7.249,11.396,5.806,3.654-1.431-.45-9.803,3.123-11.226,3.496-1.413,7.717,6.817,11.284,5.225,18.638,34.574,42.128,65.864,69.443,92.364Z" class="colord3dfee svgShape"/><path fill="#f7e6db" d="M1196.904,860.417c-.381.147-.761.156-1.142.029-.383-.131-.68-.368-.897-.718-.682-1.097-1.359-2.198-2.031-3.303-2.788.695-5.356.883-7.672.578-2.319-.308-4.315-.994-5.983-2.05-1.67-1.055-2.943-2.331-3.825-3.814-.143-.266-.163-.546-.054-.834.111-.289.321-.485.631-.586,1.856-.597,3.701-1.207,5.533-1.831.446-.151.839-.176,1.178-.077.341.098.688.242,1.041.435.551.474,1.243.879,2.071,1.213.829.334,1.804.508,2.922.514,1.119.004,2.356-.246,3.709-.756,2.197-.829,3.625-1.803,4.304-2.897.678-1.094.665-2.214-.024-3.36-.498-.829-1.186-1.385-2.065-1.674-.881-.288-2.063-.406-3.548-.358-1.487.043-3.417.209-5.802.466-2.806.367-5.329.407-7.545.136-2.217-.27-4.134-.956-5.736-2.047-1.603-1.089-2.909-2.666-3.913-4.713-1.323-2.699-1.461-5.281-.479-7.725.985-2.443,3.014-4.378,6.047-5.849-.568-1.17-1.131-2.343-1.689-3.519-.178-.374-.211-.717-.097-1.025.112-.312.345-.519.7-.631,1.14-.36,2.276-.725,3.406-1.095.316-.104.642-.077.981.088.337.161.596.428.778.798.586,1.195,1.177,2.386,1.773,3.575,2.394-.382,4.578-.34,6.579.132,2.001.472,3.725,1.182,5.183,2.138,1.459.961,2.533,2.006,3.217,3.156.144.256.183.529.111.812-.072.283-.25.483-.538.595-1.797.701-3.606,1.388-5.428,2.062-.29.107-.602.14-.933.104-.328-.033-.679-.183-1.052-.441-.623-.796-1.587-1.339-2.899-1.642-1.308-.3-2.708-.198-4.208.309-1.595.539-2.725,1.257-3.373,2.176-.652.915-.664,1.999-.029,3.243.411.803,1.011,1.402,1.795,1.788.788.39,1.858.598,3.207.63,1.347.028,3.114-.044,5.292-.239,3.213-.454,5.931-.642,8.177-.531,2.246.11,4.147.613,5.721,1.529,1.573.911,2.941,2.304,4.11,4.177,1.131,1.811,1.674,3.605,1.609,5.394-.068,1.784-.693,3.466-1.903,5.036-1.206,1.573-2.918,2.989-5.143,4.232.682,1.088,1.369,2.173,2.06,3.254.221.344.282.671.184.989-.1.315-.318.543-.658.68-1.214.488-2.434.971-3.659,1.448Z" class="colorf2f4f7 svgShape"/><path fill="#f7e6db" d="M1246.949,869.441c-6.086,3.423-12.328,6.706-18.727,9.836-1.246.609-1.605,1.944-.786,2.984.819,1.04,2.512,1.378,3.766.753,6.432-3.2,12.707-6.554,18.823-10.05,1.193-.683,1.457-2.018.604-2.983-.854-.965-2.494-1.206-3.681-.54Z" class="colorf2f4f7 svgShape"/><path fill="#f7e6db" d="M1178.917,889.773c22.071-7.168,42.655-16.124,61.7-26.466,1.62-.881,1.997-2.709.872-4.081-1.126-1.373-3.318-1.794-4.924-.944-18.904,10.04-39.328,18.705-61.22,25.594-1.858.583-2.595,2.381-1.618,4.023.977,1.642,3.315,2.485,5.19,1.873Z" class="colorf2f4f7 svgShape"/><path fill="#f7e6db" d="M1185.542,901.934c12.573-4.311,24.669-9.192,36.278-14.57,1.284-.596,1.653-1.933.839-2.985-.814-1.053-2.495-1.434-3.77-.854-11.548,5.255-23.58,10.015-36.083,14.208-1.381.462-1.905,1.78-1.153,2.948.751,1.167,2.498,1.73,3.888,1.252Z" class="colorf2f4f7 svgShape"/></g></g></svg>